<?xml version="1.0" encoding="UTF-8" standalone="no"?>
<svg
   xmlns:dc="http://purl.org/dc/elements/1.1/"
   xmlns:cc="http://creativecommons.org/ns#"
   xmlns:rdf="http://www.w3.org/1999/02/22-rdf-syntax-ns#"
   xmlns:svg="http://www.w3.org/2000/svg"
   xmlns="http://www.w3.org/2000/svg"
   viewBox="0 0 266.82666 96.653336"
   height="96.653336"
   width="266.82666"
   xml:space="preserve"
   id="svg2"
   version="1.1"><metadata
     id="metadata8"><rdf:RDF><cc:Work
         rdf:about=""><dc:format>image/svg+xml</dc:format><dc:type
           rdf:resource="http://purl.org/dc/dcmitype/StillImage" /></cc:Work></rdf:RDF></metadata><defs
     id="defs6"><clipPath
       id="clipPath20"
       clipPathUnits="userSpaceOnUse"><path
         id="path18"
         d="M 0,0 H 2001 V 724.895 H 0 Z" /></clipPath></defs><g
     transform="matrix(1.3333333,0,0,-1.3333333,0,96.653333)"
     id="g10"><g
       transform="scale(0.1)"
       id="g12"><g
         id="g14"><g
           clip-path="url(#clipPath20)"
           id="g16"><path
             id="path22"
             style="fill:#ffffff;fill-opacity:1;fill-rule:nonzero;stroke:none"
             d="m 847.41,271.828 c 1.953,6.668 3.195,16.074 3.195,26.738 0,27.715 -7.878,62.434 -30.476,70.364 -9.492,3.336 -25.102,2.683 -66.777,0.933 l -136.196,-4.437 c -133.679,-2.934 -206.371,16.773 -237.41,25.183 l -10.937,2.829 c -10.981,2.421 -16.325,5.523 -16.766,6.445 0.121,-0.293 2.984,0.816 19.797,-3.778 31.406,-8.57 130.582,-26.543 220.699,-24.136 89.156,2.379 241.746,10.633 253.262,11.332 17.82,1.094 35.359,-3.387 46.941,-11.981 5.61,-4.16 6.977,-11.047 6.977,-17.246 0,-3.762 -0.508,-7.265 -0.864,-9.765 -0.054,-0.422 -0.093,-0.84 -0.093,-1.262 0,-9.258 13.679,-17.43 16.558,-19.051 -31.465,-46.672 -62.117,-51.652 -67.91,-52.168 z m -7.437,-64.211 c -3.469,-2.898 -8.711,-3.105 -15.586,-0.605 -2.91,1.066 -3.403,4.269 -3.75,6.601 -0.239,1.594 -0.41,2.746 -1.489,3.02 -0.984,0.234 -1.824,-0.586 -2.937,-2.09 -1.145,-1.543 -2.598,-2.441 -4.336,-2.676 -2.527,-0.351 -5.535,0.762 -8.691,3.231 -2.539,1.972 -1.465,8.097 -0.75,12.148 0.586,3.371 0.878,5.051 -0.215,5.754 -0.344,0.215 -1.653,-0.039 -1.985,-0.266 -4.738,-3.32 -9.089,-4.336 -12.968,-3.007 -7.786,2.656 -11.321,13.839 -11.36,13.945 -0.152,0.508 -0.679,0.812 -1.187,0.676 -7.348,-1.797 -13.52,-1.133 -18.332,1.972 -7.305,4.707 -9.051,13.563 -9.075,13.653 -25.124,8.535 -28.945,14.726 -29.042,17.715 -0.141,4.343 6.785,7.109 6.851,7.128 0.383,0.157 0.637,0.516 0.641,0.926 0.004,0.403 -0.239,0.774 -0.617,0.93 -18.961,7.957 -22.512,13.418 -22.149,16.601 0.617,5.411 12.984,8.692 17.695,9.5 0.461,0.079 0.801,0.461 0.832,0.918 0.036,0.461 -0.253,0.879 -0.695,1.028 -19.058,6.054 -21.719,10.73 -21.605,12.969 0.265,5.144 13.699,9.062 18.851,10.144 0.449,0.09 0.774,0.48 0.797,0.93 0.02,0.468 -0.273,0.879 -0.711,1.004 -17.496,5.285 -17.972,12.14 -17.699,14.121 0.469,3.41 4.305,6.054 8.93,6.148 0.007,0 96.07,5 96.07,5 8.426,0.348 15.879,-3.199 22.129,-10.531 14.472,-16.992 19.93,-51.719 13.277,-84.434 -0.308,-1.562 0.278,-5.156 1.438,-11.886 2.746,-15.887 7.324,-42.508 -2.332,-50.567 z m -2.578,-29.793 c -1.309,-3.535 -3.274,-5.597 -5.84,-6.113 -6.789,-1.387 -15.762,7.344 -17.422,9.023 3.797,2.86 5.152,7.266 5.152,11.375 0,3.43 -0.601,5.969 -0.992,7.403 1.641,-0.086 4.312,-0.235 4.312,-0.235 5.649,-0.027 12.661,-0.047 15.688,-4.402 1.023,-1.484 1.543,-3.437 1.543,-5.852 0,-3.027 -0.82,-6.765 -2.441,-11.199 z m -52.59,41.992 c 0,0.039 0.007,0.067 0.007,0.098 0.176,1.277 3.54,3.047 9.653,3.32 0.152,-0.761 0.347,-1.601 0.347,-2.675 0,-1.348 -0.242,-2.696 -1.035,-3.457 -0.855,-0.84 -2.371,-0.938 -4.507,-0.286 -3.313,1.008 -4.465,2.219 -4.465,3 z m 17.668,-35.605 c -18.684,-9.289 -28.293,1.375 -30.285,3.973 12.167,4.738 16.335,21.105 16.874,23.613 9.676,0.812 20.711,-5.352 22.989,-12.996 1.648,-5.508 -1.758,-10.696 -9.578,-14.59 z m -43.594,7.793 c -29.582,-9.316 -40.82,5.215 -43.024,8.633 30.469,5.683 40.446,20.242 41.704,22.324 8.261,-4.141 17.824,-0.234 19.836,0.703 0.566,-0.976 2.847,-4.992 2.847,-10.527 0,-1.817 -0.269,-3.75 -0.972,-5.684 -2.422,-6.758 -9.29,-11.953 -20.391,-15.449 z m -100.652,23.75 c 44.269,5.976 61.043,21.426 64.425,25.078 4.203,-9.941 24.836,-10.488 26.825,-10.488 -0.09,-0.02 -0.137,-0.117 -0.137,-0.344 0,-0.281 0.047,-0.73 0.047,-1.289 0,-0.945 -0.125,-2.254 -0.782,-3.77 -2.035,-4.656 -9.175,-11.375 -31.656,-16.902 -44.859,-11.008 -56.629,4.16 -58.722,7.715 z m -71.918,21.445 c 66.031,4.715 98.558,16.551 101.539,17.696 9.496,-10.45 22.718,-10.567 27.699,-10.176 -2.777,-3.84 -13.461,-14.414 -50.356,-20.449 -57.379,-9.375 -75.125,8.066 -78.882,12.929 z M 511.16,266.77 c 78.942,-4.375 146.106,7.156 149.945,7.832 3.872,-7.715 15.25,-12.696 20.317,-14.551 -6.356,-2.129 -27.184,-7.871 -81.484,-14.055 -69.54,-7.91 -85.817,15 -88.778,20.774 z m -51.488,24.941 c -2.426,3.184 -2.863,5.957 -2.863,7.547 0,0.363 0.031,0.383 0.054,0.605 94.848,-10.437 174.039,-1.687 183.602,-0.535 -0.059,-0.441 -0.188,-0.879 -0.188,-1.308 0,-7.981 9.43,-14.786 13.59,-17.434 -9.133,-1.922 -47.019,-8.738 -119.965,-7.508 -50.273,0.84 -68.117,10.586 -74.23,18.633 z m -61.762,38.523 c -0.89,1.817 -1.191,3.496 -1.191,4.954 0,2.48 0.781,3.992 1.168,4.656 96.527,-26.571 208.886,-13.719 221.922,-12.078 -0.383,-1.055 -0.883,-2.082 -0.883,-3.196 0,-0.918 0.133,-1.855 0.394,-2.8 2.02,-7.297 11.032,-13.536 15.078,-16.047 -8.3,-1.778 -43.07,-7.227 -141,-1.719 -70.246,3.937 -90.699,16.437 -95.488,26.23 z M 662.797,282.09 c -12.652,7.765 -13.926,15.89 -14.059,18.039 1.782,0.234 42.453,5.32 45.457,5.703 -0.363,-0.781 -0.98,-1.477 -0.98,-2.344 0,-0.332 0.027,-0.683 0.082,-1.035 0.996,-6.133 10.687,-12.617 15.453,-15.488 -5.375,-0.567 -45.953,-4.875 -45.953,-4.875 z m 46.672,-31.668 c -8.754,1.055 -12.239,4.324 -13.473,5.965 2.297,0.644 26.34,7.394 27.086,7.597 4.289,-3.211 11.277,-5.437 14.84,-6.414 -4.059,-2.597 -15.195,-8.75 -28.453,-7.148 z m 61.301,-13.379 c 2.304,-0.684 3.671,-1.836 3.925,-3.34 0.317,-1.73 -0.894,-3.887 -3.074,-5.48 -2.898,-2.118 -7.82,-3.446 -12.949,-0.782 -2.063,1.075 -4.348,2.766 -3.543,4.739 1.433,3.554 10.508,6.375 15.641,4.863 z m -36.954,1.816 c -2.351,1.446 -3.543,2.891 -3.543,4.305 0,0.059 0,0.129 0.004,0.188 0.282,3.789 8.684,7.382 11.446,8.562 0,0 0.351,0.227 0.636,0.402 3.075,-5.382 10.184,-9.699 12.786,-11.125 -2.649,-2.371 -11.102,-8.632 -21.329,-2.332 z m -16.488,29.891 c -4.074,-0.887 -27.133,-5.918 -27.133,-5.918 -13.988,3.606 -17.968,10.313 -18.988,12.637 2.352,0.304 36.191,4.758 38.75,5.09 -0.113,-0.489 -0.352,-0.977 -0.352,-1.457 0,-4.637 4.809,-8.446 7.723,-10.352 z m -25.965,57.316 c 1.297,-5.566 8.328,-9.55 12.684,-11.582 -6.613,-0.722 -61.496,-6.796 -61.496,-6.796 -10.356,6.503 -13.313,11.972 -13.863,15.398 -0.079,0.48 -0.114,0.93 -0.114,1.348 0,2.511 1.192,3.937 1.254,4.015 0.055,-0.254 55.375,4.043 63.86,4.707 -1.254,-1.758 -2.532,-3.508 -2.532,-5.293 0,-0.605 0.071,-1.191 0.207,-1.797 z m 0.317,26.329 c 0.898,-5.333 6.047,-9.844 9.136,-12.149 -5.218,-0.332 -74.918,-4.836 -74.918,-4.836 -12.515,6.074 -15.894,11.563 -16.441,15.09 -0.062,0.398 -0.094,0.781 -0.094,1.152 0,3.184 2.067,5.157 2.168,5.246 0.016,-0.226 73.789,1.368 81.727,1.543 -0.832,-1.445 -1.715,-2.882 -1.715,-4.464 0,-0.528 0.051,-1.055 0.137,-1.582 z m -342.262,25.39 c -0.84,6.926 7.113,11.371 7.191,11.414 -0.593,-0.156 26.594,-11.219 104.567,-22.601 72.617,-10.602 130.75,-10.278 138.859,-10.18 -0.207,-0.879 -0.469,-1.77 -0.469,-2.617 0,-9.278 11.016,-16.699 16.192,-19.707 -18.446,-1.934 -122.399,-11.535 -199.836,9.09 -53.211,14.152 -65.535,26.625 -66.504,34.601 z m 560.184,-35.586 c -5.547,12.235 3.992,15.078 -2.18,28.672 -6.16,13.574 -31.652,25.234 -59.442,24.441 -27.785,-0.82 -236.398,-17.898 -308.222,-14.667 -71.828,3.253 -160.805,19.687 -179.785,25.343 -13.125,3.907 -29.883,4.774 -28.442,-0.566 0.481,-1.797 3.012,-4.152 8.457,-7.102 0,0 -37.222,-17.441 39.614,-52.41 0,0 -10.024,-33.488 59.546,-42.09 0,0 0.372,-30.527 54.473,-36.047 0,0 14.738,-37.656 77.981,-32.273 0,0 14.609,-28.352 73.21,-23.117 0,0 7.278,-26.336 57.356,-17.821 0,0 21.934,-27.695 60.371,-14.191 0,0 9.949,-24.5 43.313,-7.586 -0.305,-5.773 23.953,-21.203 38.289,-5.539 16.093,17.559 -6.563,27.492 79.668,162.981 0,0 -8.664,-0.266 -14.207,11.972" /><path
             id="path24"
             style="fill:#ffffff;fill-opacity:1;fill-rule:nonzero;stroke:none"
             d="m 1585.11,343.184 c -77.43,-20.625 -181.39,-11.024 -199.83,-9.09 5.18,3.008 16.19,10.429 16.19,19.707 0,0.847 -0.27,1.738 -0.46,2.617 8.1,-0.098 66.23,-0.422 138.84,10.18 77.98,11.382 105.17,22.445 104.57,22.601 0.08,-0.043 8.03,-4.488 7.19,-11.414 -0.96,-7.976 -13.28,-20.449 -66.5,-34.601 z m 18.02,-12.95 c -4.8,-9.793 -25.25,-22.293 -95.49,-26.23 -97.93,-5.508 -132.71,-0.059 -141.01,1.719 4.05,2.511 13.07,8.75 15.08,16.047 0.27,0.945 0.4,1.882 0.4,2.8 0,1.114 -0.5,2.141 -0.89,3.196 13.05,-1.641 125.4,-14.493 221.93,12.078 0.39,-0.664 1.17,-2.176 1.17,-4.656 0,-1.458 -0.31,-3.137 -1.19,-4.954 z m -61.77,-38.523 c -6.12,-8.047 -23.95,-17.793 -74.22,-18.633 -72.95,-1.23 -110.84,5.586 -119.97,7.508 4.16,2.648 13.58,9.453 13.58,17.434 0,0.429 -0.12,0.867 -0.17,1.308 9.55,-1.152 88.75,-9.902 183.59,0.535 0.02,-0.222 0.06,-0.242 0.06,-0.605 0,-1.59 -0.44,-4.363 -2.87,-7.547 z M 1401.1,245.996 c -54.3,6.184 -75.13,11.926 -81.48,14.055 5.06,1.855 16.44,6.836 20.31,14.551 3.84,-0.676 71,-12.207 149.94,-7.832 -2.96,-5.774 -19.24,-28.684 -88.77,-20.774 z m -65.25,-21.726 c -36.89,6.035 -47.58,16.609 -50.36,20.449 4.98,-0.391 18.2,-0.274 27.7,10.176 2.97,-1.145 35.51,-12.981 101.54,-17.696 -3.76,-4.863 -21.51,-22.304 -78.88,-12.929 z m -51.76,-16.231 c -22.48,5.527 -29.63,12.246 -31.66,16.902 -0.66,1.516 -0.78,2.825 -0.78,3.77 0,0.559 0.04,1.008 0.04,1.289 0,0.227 -0.04,0.324 -0.14,0.344 1.99,0 22.63,0.547 26.84,10.488 3.38,-3.652 20.15,-19.102 64.41,-25.078 -2.09,-3.555 -13.85,-18.723 -58.71,-7.715 z m -41.93,-16.035 c -11.11,3.496 -17.97,8.691 -20.39,15.449 -0.71,1.934 -0.98,3.867 -0.98,5.684 0,5.535 2.29,9.551 2.85,10.527 2.01,-0.937 11.57,-4.844 19.84,-0.703 1.26,-2.082 11.24,-16.641 41.71,-22.324 -2.21,-3.418 -13.45,-17.949 -43.03,-8.633 z m -43.6,-7.793 c -7.82,3.894 -11.23,9.082 -9.58,14.59 2.28,7.644 13.31,13.808 22.99,12.996 0.54,-2.508 4.71,-18.875 16.88,-23.613 -1.99,-2.598 -11.6,-13.262 -30.29,-3.973 z m -29.08,-12.5 c -2.57,0.516 -4.53,2.578 -5.84,6.113 -1.62,4.434 -2.44,8.172 -2.44,11.199 0,2.415 0.52,4.368 1.54,5.852 3.03,4.355 10.04,4.375 15.69,4.402 0,0 2.67,0.149 4.31,0.235 -0.39,-1.434 -0.99,-3.973 -0.99,-7.403 0,-4.109 1.36,-8.515 5.15,-11.375 -1.66,-1.679 -10.63,-10.41 -17.42,-9.023 z m 46.75,48.105 c 0,-0.781 -1.15,-1.992 -4.46,-3 -2.14,-0.652 -3.65,-0.554 -4.51,0.286 -0.8,0.761 -1.04,2.109 -1.04,3.457 0,1.074 0.2,1.914 0.35,2.675 6.12,-0.273 9.47,-2.043 9.65,-3.32 0,-0.031 0.01,-0.059 0.01,-0.098 z m -57.5,38.368 c 1.16,6.73 1.75,10.324 1.44,11.886 -6.65,32.715 -1.2,67.442 13.28,84.434 6.25,7.332 13.7,10.879 22.13,10.531 0,0 96.05,-5 96.07,-5 4.62,-0.094 8.46,-2.738 8.93,-6.148 0.27,-1.981 -0.21,-8.836 -17.7,-14.121 -0.45,-0.125 -0.74,-0.536 -0.72,-1.004 0.03,-0.45 0.35,-0.84 0.8,-0.93 5.16,-1.082 18.59,-5 18.85,-10.144 0.11,-2.239 -2.54,-6.915 -21.6,-12.969 -0.44,-0.149 -0.73,-0.567 -0.7,-1.028 0.03,-0.457 0.37,-0.839 0.83,-0.918 4.71,-0.808 17.08,-4.089 17.7,-9.5 0.37,-3.183 -3.19,-8.644 -22.15,-16.601 -0.37,-0.156 -0.63,-0.527 -0.62,-0.93 0.01,-0.41 0.27,-0.769 0.64,-0.926 0.08,-0.019 6.99,-2.785 6.85,-7.128 -0.09,-2.989 -3.91,-9.18 -29.04,-17.715 -0.02,-0.09 -1.77,-8.946 -9.07,-13.653 -4.82,-3.105 -10.99,-3.769 -18.33,-1.972 -0.51,0.136 -1.04,-0.168 -1.19,-0.676 -0.04,-0.106 -3.58,-11.289 -11.36,-13.945 -3.88,-1.329 -8.23,-0.313 -12.97,3.007 -0.33,0.227 -1.64,0.481 -1.98,0.266 -1.1,-0.703 -0.8,-2.383 -0.22,-5.754 0.72,-4.051 1.79,-10.176 -0.75,-12.148 -3.15,-2.469 -6.16,-3.582 -8.69,-3.231 -1.74,0.235 -3.19,1.133 -4.34,2.676 -1.11,1.504 -1.95,2.324 -2.94,2.09 -1.07,-0.274 -1.25,-1.426 -1.48,-3.02 -0.35,-2.332 -0.84,-5.535 -3.75,-6.601 -6.87,-2.5 -12.12,-2.293 -15.59,0.605 -9.65,8.059 -5.07,34.68 -2.33,50.567 z m 141.49,82.062 c 3.09,2.305 8.24,6.816 9.14,12.149 0.08,0.527 0.13,1.054 0.13,1.582 0,1.582 -0.89,3.019 -1.71,4.464 7.93,-0.175 81.7,-1.769 81.72,-1.543 0.1,-0.089 2.17,-2.062 2.17,-5.246 0,-0.371 -0.03,-0.754 -0.1,-1.152 -0.54,-3.527 -3.92,-9.016 -16.43,-15.09 0,0 -69.7,4.504 -74.92,4.836 z m -3.24,-25.762 c 4.36,2.032 11.39,6.016 12.7,11.582 0.13,0.606 0.19,1.192 0.19,1.797 0,1.785 -1.27,3.535 -2.52,5.293 8.48,-0.664 63.8,-4.961 63.85,-4.707 0.07,-0.078 1.26,-1.504 1.26,-4.015 0,-0.418 -0.03,-0.868 -0.11,-1.348 -0.55,-3.426 -3.51,-8.895 -13.86,-15.398 0,0 -54.89,6.074 -61.51,6.796 z m -4.69,-27.519 c 4.76,2.871 14.46,9.355 15.45,15.488 0.05,0.352 0.08,0.703 0.08,1.035 0,0.867 -0.62,1.563 -0.97,2.344 2.99,-0.383 43.67,-5.469 45.44,-5.703 -0.13,-2.149 -1.4,-10.274 -14.06,-18.039 0,0 -40.56,4.308 -45.94,4.875 z m -8.59,-18.215 c 2.92,1.906 7.74,5.715 7.74,10.352 0,0.48 -0.25,0.968 -0.36,1.457 2.56,-0.332 36.39,-4.786 38.75,-5.09 -1.02,-2.324 -5,-9.031 -18.99,-12.637 0,0 -23.06,5.031 -27.14,5.918 z m -20.58,-11.18 c 3.55,0.977 10.54,3.203 14.84,6.414 0.74,-0.203 24.78,-6.953 27.08,-7.597 -1.24,-1.641 -4.72,-4.91 -13.47,-5.965 -13.26,-1.602 -24.39,4.551 -28.45,7.148 z m -20.76,-30.129 c -5.12,-2.664 -10.05,-1.336 -12.95,0.782 -2.17,1.593 -3.38,3.75 -3.07,5.48 0.25,1.504 1.62,2.656 3.92,3.34 5.14,1.512 14.21,-1.309 15.65,-4.863 0.8,-1.973 -1.49,-3.664 -3.55,-4.739 z m 3.53,13.75 c 2.6,1.426 9.71,5.743 12.79,11.125 0.28,-0.175 0.63,-0.402 0.63,-0.402 2.77,-1.18 11.17,-4.773 11.44,-8.562 0.01,-0.059 0.01,-0.129 0.01,-0.188 0,-1.414 -1.19,-2.859 -3.54,-4.305 -10.23,-6.3 -18.68,-0.039 -21.33,2.332 z m -160.18,82.805 c 2.88,1.621 16.57,9.793 16.57,19.051 0,0.422 -0.04,0.84 -0.1,1.262 -0.35,2.5 -0.86,6.003 -0.86,9.765 0,6.199 1.37,13.086 6.97,17.246 11.58,8.594 29.12,13.075 46.94,11.981 11.52,-0.699 164.12,-8.953 253.27,-11.332 90.11,-2.407 189.28,15.566 220.69,24.136 16.82,4.594 19.69,3.485 19.8,3.778 -0.45,-0.922 -5.78,-4.024 -16.76,-6.445 l -10.94,-2.829 c -31.05,-8.41 -103.73,-28.117 -237.41,-25.183 l -136.19,4.437 c -41.68,1.75 -57.29,2.403 -66.78,-0.933 -22.6,-7.93 -30.48,-42.649 -30.48,-70.364 0,-10.664 1.24,-20.07 3.19,-26.738 -5.79,0.516 -36.44,5.496 -67.91,52.168 z m 575.33,74.324 c 5.45,2.95 7.98,5.305 8.46,7.102 1.45,5.34 -15.31,4.473 -28.44,0.566 -18.98,-5.656 -107.95,-22.09 -179.78,-25.343 -71.83,-3.231 -280.44,13.847 -308.22,14.667 -27.8,0.793 -53.28,-10.867 -59.45,-24.441 -6.17,-13.594 3.37,-16.437 -2.17,-28.672 -5.55,-12.238 -14.21,-11.972 -14.21,-11.972 86.23,-135.489 63.57,-145.422 79.66,-162.981 14.34,-15.664 38.6,-0.234 38.3,5.539 33.35,-16.914 43.31,7.586 43.31,7.586 38.43,-13.504 60.37,14.191 60.37,14.191 50.08,-8.515 57.35,17.821 57.35,17.821 58.6,-5.235 73.21,23.117 73.21,23.117 63.25,-5.383 77.98,32.273 77.98,32.273 54.1,5.52 54.47,36.047 54.47,36.047 69.58,8.602 59.56,42.09 59.56,42.09 76.83,34.969 39.6,52.41 39.6,52.41" /><path
             id="path26"
             style="fill:#ffffff;fill-opacity:1;fill-rule:nonzero;stroke:none"
             d="m 150.258,451.176 c -0.016,-0.004 -37.895,-14.203 -51.2892,-19.223 -5.3672,14.328 -29.8672,79.731 -35.2305,94.047 12.9414,4.855 46.1677,17.312 46.1677,17.312 15.313,5.731 28.004,6.161 38.789,1.301 10.641,-4.769 19.035,-15.215 24.957,-31.047 3.657,-9.761 5.489,-18.523 5.489,-26.199 0,-4.969 -0.774,-9.48 -2.305,-13.519 -3.785,-9.957 -12.477,-17.368 -26.578,-22.672 z m 35.926,19.117 c 4.824,12.676 3.765,28.262 -3.164,46.777 -6.934,18.535 -17.012,30.742 -30.215,36.66 -13.188,5.938 -28.672,5.586 -46.41,-1.054 L 50.8672,531.855 93.1133,419.082 153.777,441.816 c 16.782,6.309 27.578,15.782 32.407,28.477" /><path
             id="path28"
             style="fill:#ffffff;fill-opacity:1;fill-rule:nonzero;stroke:none"
             d="m 337.633,551.793 c -12.391,-3.098 -21.906,-5.469 -34,-8.492 2.219,12.871 4.238,24.629 7.055,41.047 10.679,-12.907 18.367,-22.188 26.945,-32.555 z m -46.449,-21.91 64.277,16.055 -50.941,61.542 -13.336,-77.597" /><path
             id="path30"
             style="fill:#ffffff;fill-opacity:1;fill-rule:nonzero;stroke:none"
             d="m 565.961,647.242 c 0,-0.019 2.027,-6.742 2.027,-6.742 0.211,-1.375 0.305,-2.609 0.305,-3.723 0,-4.507 -1.523,-7.047 -2.797,-8.648 -1.504,-1.887 -5.922,-5.375 -18.598,-7.414 -0.043,-0.008 -41.898,-6.641 -56.179,-8.903 -1.489,9.376 -3.125,19.665 -4.614,29.043 14.168,2.25 54.672,8.68 54.672,8.68 0.008,0 15.614,1.289 15.614,1.289 3.945,-0.16 6.121,-0.871 7.242,-1.445 1.418,-0.727 1.992,-1.527 2.328,-2.137 z m -26.75,12.172 -64.555,-10.254 7.754,-48.789 66.074,10.469 c 12.246,1.972 20.532,5.644 24.844,11.074 4.277,5.391 5.781,12.129 4.531,20.156 -0.64,4.043 -1.699,7.364 -3.14,10 -1.465,2.657 -3.657,4.727 -6.567,6.231 -2.925,1.484 -6.714,2.324 -11.382,2.519 -4.668,0.176 -10.508,-0.293 -17.559,-1.406" /><path
             id="path32"
             style="fill:#ffffff;fill-opacity:1;fill-rule:nonzero;stroke:none"
             d="m 1325.73,617.57 c -1.41,-16.414 -7,-28.359 -17.07,-36.515 -10.2,-8.282 -24.04,-11.543 -42.29,-9.981 -17.96,1.528 -31.41,7.242 -39.95,16.988 -8.59,9.774 -12.07,22.497 -10.67,38.872 1.4,16.418 6.99,28.355 17.1,36.515 l 0.02,0.012 c 10.05,8.152 24.26,11.519 42.24,10.012 18.25,-1.578 31.33,-7.145 39.95,-17.008 8.58,-9.774 12.07,-22.496 10.67,-38.895 z m -49.78,65.868 c -20.73,1.738 -37.19,-2.325 -49.38,-12.208 -12.24,-9.882 -19.16,-24.375 -20.78,-43.437 -1.64,-19.063 2.74,-34.512 13.11,-46.328 10.35,-11.797 25.91,-18.594 46.62,-20.352 20.76,-1.777 37.22,2.266 49.43,12.168 12.21,9.883 19.1,24.375 20.74,43.438 1.62,19.062 -2.73,34.511 -13.1,46.328 -10.33,11.816 -25.88,18.594 -46.64,20.391" /><path
             id="path34"
             style="fill:#ffffff;fill-opacity:1;fill-rule:nonzero;stroke:none"
             d="m 1532.26,613.121 c -2.05,-1.34 -7.34,-3.258 -19.97,-1.168 0,0 -41.93,6.871 -56.21,9.211 1.53,9.336 3.2,19.484 4.72,28.82 14.16,-2.312 54.67,-8.933 54.67,-8.933 l 15.21,-3.684 c 3.94,-1.457 5.78,-2.922 6.53,-3.664 1.05,-1.082 1.35,-2.043 1.49,-2.746 -0.01,0 -0.2,-6.957 -0.2,-6.957 -1.12,-6.828 -4.1,-9.477 -6.24,-10.879 z m 16.11,9.281 c 0.64,3.985 0.7,7.461 0.16,10.43 -0.57,2.969 -1.98,5.625 -4.28,7.969 -2.31,2.285 -5.65,4.297 -10.02,5.918 -4.38,1.66 -10.08,3.027 -17.15,4.199 l -64.53,10.547 -7.95,-48.555 66.05,-10.82 c 12.27,-2.031 21.29,-1.133 27.07,2.656 5.81,3.789 9.34,9.649 10.65,17.656" /><path
             id="path36"
             style="fill:#ffffff;fill-opacity:1;fill-rule:nonzero;stroke:none"
             d="m 208.547,464.961 c -3.535,-8.926 -9.027,-16.914 -16.485,-23.965 -7.484,-7.031 -17.035,-12.715 -28.671,-17.09 l -94.1644,-35.273 -1.2657,3.437 c 2.6524,0.996 4.2579,2.305 4.7227,3.907 0.4883,1.601 0.3359,3.437 -0.4492,5.527 L 23.5859,531.406 c -0.8047,2.11 -1.875,3.594 -3.3047,4.473 -1.4023,0.898 -3.4765,0.84 -6.1289,-0.176 l -1.2929,3.457 88.7346,33.223 c 11.797,4.433 23.14,6.543 33.965,6.367 10.836,-0.176 20.796,-2.383 29.902,-6.582 9.059,-4.219 17.129,-10.254 24.234,-18.145 7.09,-7.91 12.676,-17.304 16.743,-28.183 4.082,-10.86 6.328,-21.485 6.738,-31.875 0.41,-10.41 -1.137,-20.059 -4.629,-29.004 z M 25.668,544.309 c -0.0235,0.007 -0.0664,0.007 -0.0899,0.023 l -1.0976,1.402 z m 171.477,16.39 c -7.989,8.863 -17.223,15.766 -27.465,20.535 -10.395,4.793 -21.809,7.317 -33.961,7.516 -12.09,0.195 -24.75,-2.164 -37.6409,-7.008 L 0,545.023 8.12109,523.254 c 0,0 4.19921,1.359 6.97271,2.258 6.2031,-16.528 41.121,-109.739 46.8945,-125.157 -2.5547,-1.117 -5.6211,-2.46 -5.6211,-2.46 l 2.2109,-9.29 4.7539,-12.863 103.563,38.801 c 12.851,4.828 23.625,11.277 32.015,19.168 8.5,8.039 14.867,17.305 18.934,27.57 3.996,10.235 5.785,21.348 5.32,33.078 -0.449,11.414 -2.93,23.192 -7.367,35 -4.469,11.969 -10.746,22.52 -18.652,31.34" /><path
             id="path38"
             style="fill:#ffffff;fill-opacity:1;fill-rule:nonzero;stroke:none"
             d="m 389.949,489.805 -0.879,3.535 c 2.368,0.605 3.852,1.348 4.477,2.246 0.625,0.879 0.738,2.012 0.406,3.398 -0.254,0.977 -0.762,1.954 -1.504,2.93 -0.777,0.938 -2.398,3.008 -4.859,6.172 l -17.168,20.859 -83.828,-20.976 -4.16,-26.172 c -0.356,-1.992 -0.746,-4.18 -1.196,-6.602 -0.449,-2.402 -0.508,-4.199 -0.215,-5.371 0.532,-2.187 2.485,-2.851 5.84,-1.992 l 0.879,-3.555 -36.426,-9.101 -0.894,3.554 c 1.211,0.274 2.183,0.645 3.047,1.055 0.816,0.449 1.519,1.231 2.066,2.403 0.551,1.191 1.074,2.851 1.582,4.98 0.528,2.129 1.172,4.941 1.953,8.516 l 23.711,133.164 c 0.742,3.75 1.289,6.562 1.66,8.437 0.371,1.875 0.43,3.32 0.2,4.297 -0.586,2.383 -2.676,3.125 -6.235,2.246 l -0.894,3.535 43.258,10.84 0.902,-3.574 c -3.164,-0.801 -4.453,-2.383 -3.852,-4.746 0.278,-1.192 1.157,-2.598 2.618,-4.219 1.464,-1.641 3.402,-3.926 5.824,-6.894 L 412.605,515 c 2.676,-3.105 4.75,-5.527 6.235,-7.266 1.465,-1.738 2.793,-2.968 3.926,-3.73 1.129,-0.781 2.222,-1.152 3.257,-1.094 1.039,0.059 2.446,0.293 4.243,0.742 l 0.855,-3.554 z m 37.446,23.461 c -0.461,0.461 -0.911,0.914 -0.911,0.914 -0.043,0.05 -6.296,7.347 -6.296,7.347 0.105,-0.129 -86.243,103.641 -86.243,103.641 0.024,-0.031 -0.918,1.082 -2.004,2.371 0.161,0.055 0.887,0.293 0.887,0.293 l -1.461,9.234 -3.336,13.266 -62.683,-15.707 5.722,-22.516 c 0,0 1.45,0.305 2.254,0.469 -0.148,-0.777 -0.351,-1.785 -0.351,-1.785 -0.035,-0.191 -23.719,-133.203 -23.743,-133.34 0,0.039 -1.82,-7.883 -1.82,-7.883 -0.008,-0.039 -0.246,-0.828 -0.48,-1.609 -2.223,-0.77 -6.95,-2.399 -6.95,-2.399 l 0.743,-9.281 3.343,-13.222 55.778,13.933 -5.606,22.68 c 0,0 -1.402,-0.301 -2.109,-0.457 0.078,0.433 0.18,1.012 0.18,1.012 0,0 1.953,12.293 3.121,19.648 10.066,2.52 61.621,15.418 71.285,17.836 4.715,-5.727 13.148,-15.973 13.148,-15.973 0.004,-0.008 0.282,-0.359 0.492,-0.629 -0.613,-0.191 -1.875,-0.582 -1.875,-0.582 l 0.883,-9.597 3.297,-13.254 60.516,15.129 -5.438,22.48 c 0,0 -10.211,-1.988 -10.343,-2.019" /><path
             id="path40"
             style="fill:#ffffff;fill-opacity:1;fill-rule:nonzero;stroke:none"
             d="m 584.656,525.02 -0.586,3.613 c 2.618,0.39 4.258,0.859 4.907,1.387 0.64,0.527 0.859,1.289 0.718,2.265 -0.215,1.211 -0.879,2.227 -2.05,3.086 l -46.485,53.203 -55.469,-8.808 9.204,-57.891 c 0.347,-2.227 1.128,-3.887 2.339,-5.059 1.211,-1.132 3.227,-1.484 6.036,-1.035 l 0.57,-3.613 -39.848,-6.328 -0.586,3.633 c 2.832,0.429 4.629,1.406 5.434,2.871 0.777,1.465 1.015,3.281 0.68,5.508 l -21.778,137.011 c -0.347,2.207 -1.133,3.887 -2.344,5.059 -1.21,1.133 -3.218,1.484 -6.035,1.035 l -0.586,3.613 101.078,16.055 c 19.903,3.164 34.786,1.66 44.625,-4.531 9.868,-6.172 15.918,-16.367 18.188,-30.684 2.012,-12.695 0.293,-23.262 -5.156,-31.797 -5.469,-8.496 -15.571,-14.98 -30.356,-19.355 l 47.364,-52.774 c 2.714,-2.851 4.804,-4.687 6.292,-5.468 1.446,-0.821 3.708,-0.977 6.7,-0.489 l 0.601,-3.632 z m 40.418,20.304 c -0.965,0.867 -3.304,3.055 -3.304,3.055 -0.008,0.004 -24.368,27.148 -38.047,42.394 9.507,4.676 17.531,10.184 22.195,17.43 5.027,7.879 7.555,17.07 7.555,27.442 0,3.632 -0.309,7.414 -0.93,11.328 -2.723,17.203 -10.379,29.855 -22.758,37.597 -12.051,7.578 -28.902,9.524 -51.504,5.934 l -110.976,-17.633 3.703,-22.848 c 0,0 4.379,0.465 7.246,0.774 2.762,-17.305 18.387,-115.625 20.988,-131.988 -2.773,-0.571 -6.156,-1.27 -6.156,-1.27 l 0.449,-9.656 2.172,-13.485 59.559,9.461 -3.586,22.86 c 0,0 -4.422,-0.469 -7.293,-0.778 -1.305,8.133 -5.078,31.895 -7.246,45.52 11.746,1.863 33.004,5.238 40.129,6.371 5.187,-5.937 26.839,-30.723 35.937,-41.133 l -0.125,-0.023 1.117,-9.645 2.184,-13.445 63.258,10.008 -3.786,22.707 c 0,0 -10.371,-0.938 -10.781,-0.977" /><path
             id="path42"
             style="fill:#ffffff;fill-opacity:1;fill-rule:nonzero;stroke:none"
             d="m 799.973,547.246 -0.317,3.652 c 2.641,0.215 3.891,1.133 3.75,2.754 -0.136,1.836 -1.66,4.258 -4.59,7.286 l -66.461,72.558 -33.632,-29.785 4.492,-53.555 c 0.191,-2.246 0.84,-3.984 1.973,-5.195 1.113,-1.25 3.082,-1.738 5.933,-1.484 l 0.317,-3.672 -40.2,-3.379 -0.308,3.652 c 2.847,0.254 4.707,1.074 5.625,2.461 0.879,1.426 1.25,3.223 1.074,5.449 l -11.606,138.145 c -0.195,2.207 -0.835,3.965 -1.968,5.215 -1.133,1.211 -3.11,1.699 -5.957,1.484 l -0.293,3.652 40.191,3.36 0.316,-3.653 c -2.851,-0.214 -4.726,-1.054 -5.624,-2.461 -0.903,-1.406 -1.27,-3.222 -1.079,-5.468 l 5.215,-62.051 77.539,69.023 c 1.328,1.133 2.325,2.032 3.008,2.715 0.649,0.645 0.941,1.387 0.859,2.188 -0.054,0.644 -0.449,1.211 -1.21,1.758 -0.758,0.546 -1.954,0.742 -3.575,0.625 l -0.293,3.652 45.625,3.828 0.317,-3.652 c -3.047,-0.254 -5.356,-0.957 -6.875,-2.11 -1.528,-1.172 -4.106,-3.3 -7.739,-6.465 l -54.722,-48.711 81.226,-88.183 c 2.075,-2.5 3.789,-4.238 5.215,-5.215 1.406,-1.035 3.227,-1.426 5.449,-1.23 l 0.317,-3.672 z m 41.453,17.18 c -0.938,0.941 -2.738,2.832 -2.738,2.832 -0.286,0.324 -55.133,59.871 -74.684,81.097 11.269,10.036 47.129,41.95 47.129,41.95 -0.078,-0.071 7.183,6.007 7.183,6.007 -0.461,-0.296 1.606,0.071 1.606,0.071 l 8.988,1.601 0.145,9.219 -1.164,13.598 -65.504,-5.496 c 0,0 1.199,-14.922 1.301,-16.188 -10.758,-9.574 -40.333,-35.902 -58.571,-52.14 -1.449,17.265 -3.066,36.5 -3.332,39.597 2.817,0.36 6.223,0.801 6.223,0.801 l 0.262,9.672 -1.161,13.594 -60.074,-5.02 1.848,-22.984 c 0,0 4.531,0.101 7.367,0.168 1.48,-17.391 9.82,-116.715 11.199,-133.137 -2.765,-0.398 -6.109,-0.879 -6.109,-0.879 l -0.379,-9.566 1.168,-13.598 60.117,5.055 -1.969,23.14 c 0,0 -4.398,-0.168 -7.297,-0.281 -0.75,8.766 -2.964,35.164 -3.875,46.012 4.465,3.957 14.817,13.121 22.516,19.941 10.426,-11.383 54.785,-59.808 57.953,-63.269 0.055,-2.821 0.117,-6.18 0.117,-6.18 l 1.168,-13.594 61.914,5.184 -1.972,23.23 c 0,0 -8.235,-0.386 -9.375,-0.437" /><path
             id="path44"
             style="fill:#ffffff;fill-opacity:1;fill-rule:nonzero;stroke:none"
             d="m 1091.79,713.047 40.23,-0.488 -0.06,-3.672 c -2.83,0.019 -4.76,-0.606 -5.8,-1.934 -1.03,-1.289 -1.58,-3.066 -1.6,-5.312 l -1.76,-138.692 c -0.06,-2.246 0.43,-4.043 1.45,-5.371 0.99,-1.348 2.91,-2.031 5.76,-2.07 l -0.04,-3.653 -40.25,0.489 0.06,3.672 c 2.83,-0.039 4.78,0.605 5.82,1.914 1.03,1.328 1.56,3.066 1.6,5.332 l 0.76,61.015 -108.202,1.387 -0.781,-61.035 c -0.039,-2.227 0.449,-4.024 1.445,-5.352 1.016,-1.347 2.945,-2.031 5.801,-2.05 l -0.063,-3.672 -40.254,0.507 0.063,3.672 c 2.832,-0.019 4.785,0.606 5.816,1.914 1.035,1.309 1.567,3.086 1.606,5.352 l 1.777,138.672 c 0.02,2.246 -0.473,4.023 -1.469,5.371 -0.996,1.348 -2.929,2.031 -5.761,2.07 l 0.042,3.653 40.25,-0.508 -0.054,-3.692 c -2.856,0.059 -4.785,-0.566 -5.84,-1.894 -1.02,-1.309 -1.543,-3.106 -1.566,-5.332 l -0.758,-57.52 108.218,-1.386 0.74,57.519 c 0.02,2.246 -0.46,4.024 -1.46,5.371 -1.02,1.348 -2.93,2.031 -5.76,2.071 z m 24.41,-161.41 c 0.02,-0.024 0.07,-0.051 0.09,-0.071 0,-0.004 0.52,-1.734 0.52,-1.734 z m -34.55,148.406 c 0,0 4.41,-0.285 7.28,-0.473 -0.09,-8.015 -0.39,-31.441 -0.57,-45.008 -14.8,0.188 -73.42,0.942 -88.22,1.133 0.17,12.918 0.55,41.153 0.6,44.961 2.81,0.09 6.16,0.196 6.16,0.196 l 1.27,9.558 0.22,13.723 -60.304,0.762 -0.25,-23.125 c 0,0 4.414,-0.29 7.281,-0.481 -0.211,-17.566 -1.484,-117.32 -1.695,-133.676 -2.777,-0.133 -6.113,-0.289 -6.113,-0.289 l -1.34,-9.429 -0.215,-13.704 60.256,-0.761 0.37,23.207 c 0,0 -4.46,0.258 -7.36,0.429 0.101,8.594 0.421,34.149 0.609,48.473 14.791,-0.191 73.421,-0.945 88.201,-1.133 -0.16,-13.289 -0.55,-44.656 -0.6,-48.496 -2.8,-0.113 -6.18,-0.25 -6.18,-0.25 l -1.27,-9.484 -0.22,-13.711 60.3,-0.731 0.25,23.125 c 0,0 -4.4,0.289 -7.27,0.473 0.22,17.699 1.48,117.258 1.69,133.676 2.77,0.129 6.12,0.281 6.12,0.281 l 1.31,9.438 0.22,13.711 -60.29,0.73 -0.24,-23.125" /><path
             id="path46"
             style="fill:#ffffff;fill-opacity:1;fill-rule:nonzero;stroke:none"
             d="m 1362.35,614.414 c -1.11,-13.164 -4.37,-24.629 -9.8,-34.355 -5.45,-9.766 -12.56,-17.715 -21.37,-23.907 -8.81,-6.191 -18.92,-10.488 -30.37,-12.871 -11.44,-2.422 -23.79,-3.047 -36.95,-1.894 -13.21,1.113 -25.24,3.808 -36.12,8.105 -10.86,4.297 -20.11,10.254 -27.75,17.852 -7.64,7.578 -13.28,16.621 -17.01,27.168 -3.69,10.508 -4.98,22.363 -3.85,35.547 1.11,13.183 4.4,24.648 9.83,34.375 5.42,9.746 12.55,17.754 21.36,24.062 8.79,6.27 18.95,10.723 30.41,13.32 11.47,2.598 23.79,3.321 36.98,2.207 13.2,-1.132 25.23,-3.945 36.07,-8.437 10.88,-4.492 20.12,-10.606 27.73,-18.281 7.62,-7.715 13.3,-16.817 17,-27.325 3.71,-10.546 4.98,-22.382 3.84,-35.566 z m -13.72,69.918 c -8.58,8.641 -19.01,15.531 -31.03,20.492 -11.73,4.864 -24.87,7.949 -39.04,9.16 -14.2,1.204 -27.66,0.387 -40.03,-2.418 -12.72,-2.878 -24.16,-7.902 -34.02,-14.929 -10.01,-7.172 -18.18,-16.364 -24.3,-27.336 -6.1,-10.938 -9.82,-23.856 -11.04,-38.403 -1.25,-14.515 0.21,-27.886 4.37,-39.703 4.23,-11.965 10.77,-22.371 19.41,-30.949 8.56,-8.523 19.03,-15.273 31.11,-20.051 11.73,-4.633 24.83,-7.582 38.96,-8.773 14.09,-1.234 27.52,-0.539 39.86,2.074 12.68,2.641 24.15,7.516 34.05,14.473 10,7.035 18.2,16.191 24.35,27.219 6.09,10.91 9.8,23.828 11.03,38.382 0.3,3.344 0.43,6.625 0.43,9.844 0,10.77 -1.6,20.789 -4.8,29.887 -4.15,11.816 -10.65,22.258 -19.31,31.031" /><path
             id="path48"
             style="fill:#ffffff;fill-opacity:1;fill-rule:nonzero;stroke:none"
             d="m 1573,617.773 c -2.09,-12.675 -7.05,-22.148 -14.88,-28.496 -7.86,-6.347 -19.52,-9.316 -34.91,-8.828 l 28.34,-65.019 c 1.68,-3.594 3.11,-5.977 4.26,-7.207 1.13,-1.211 3.2,-2.051 6.23,-2.559 l -0.58,-3.613 -43.4,7.09 0.58,3.613 c 2.6,-0.41 4.28,-0.488 5.08,-0.195 0.74,0.273 1.21,0.918 1.41,1.933 0.15,1.211 -0.16,2.403 -0.98,3.574 l -27.42,65.157 -55.49,9.082 -9.47,-57.891 c -0.37,-2.226 -0.16,-4.062 0.64,-5.527 0.78,-1.465 2.6,-2.442 5.39,-2.91 l -0.56,-3.594 -39.85,6.504 0.57,3.613 c 2.81,-0.469 4.82,-0.137 6.05,1.035 1.21,1.133 2.02,2.813 2.39,5.02 l 22.38,136.816 c 0.33,2.207 0.14,4.043 -0.66,5.547 -0.79,1.445 -2.58,2.422 -5.4,2.891 l 0.59,3.593 101.07,-16.523 c 19.91,-3.242 33.56,-9.356 40.98,-18.301 7.42,-8.945 9.98,-20.566 7.64,-34.805 z M 1423.58,524.18 c 0.01,-0.016 0.06,-0.086 0.06,-0.086 l 0.25,-1.735 z m 102.42,156.566 -110.95,18.141 -3.71,-22.782 c 0,0 4.35,-0.968 7.15,-1.582 -2.8,-17.16 -18.89,-115.574 -21.56,-131.855 -2.81,0.32 -6.25,0.707 -6.25,0.707 l -2.6,-9.328 -2.1,-13.426 59.57,-9.726 3.59,22.789 c 0,0 -4.31,0.961 -7.09,1.582 1.32,8.125 5.22,31.922 7.44,45.554 11.75,-1.922 33.04,-5.41 40.17,-6.57 3.06,-7.285 15.95,-37.906 21.26,-50.527 -0.01,0 -0.23,0.027 -0.23,0.027 l -1.92,-9.395 -2.19,-13.472 63.15,-10.317 3.66,22.633 c 0,0 -10.19,2.446 -10.66,2.563 -0.54,1.019 -2.11,3.902 -2.11,3.902 0,0.008 -14.58,33.418 -22.76,52.215 10.53,1.453 19.85,4.207 26.54,9.621 9.77,7.918 15.98,19.574 18.46,34.648 0.66,3.965 0.99,7.782 0.99,11.45 0,12.199 -3.62,22.714 -10.79,31.367 -9.11,10.98 -24.52,18.109 -47.06,21.781" /><path
             id="path50"
             style="fill:#ffffff;fill-opacity:1;fill-rule:nonzero;stroke:none"
             d="m 1765.3,501.934 c -1.6,-6.309 -4.78,-11.973 -9.53,-16.934 -4.76,-4.98 -10.98,-8.906 -18.65,-11.777 -7.7,-2.871 -16.64,-4.356 -26.86,-4.473 -10.21,-0.098 -21.64,1.445 -34.25,4.688 -10.65,2.734 -19.67,5.937 -27.02,9.589 -7.38,3.653 -13.53,7.344 -18.45,10.996 -4.94,3.672 -8.95,6.875 -12.03,9.649 -3.09,2.773 -5.71,4.453 -7.86,5.019 -1.99,0.469 -4.35,-0.156 -7.14,-1.972 l -2.48,2.539 24.68,29.922 3.3,-3.067 c -0.93,-1.211 -1.56,-2.441 -1.85,-3.613 -0.72,-2.754 0.27,-6.055 2.97,-9.902 2.69,-3.848 6.54,-7.715 11.52,-11.621 4.98,-3.907 10.82,-7.559 17.52,-10.938 6.7,-3.418 13.69,-6.035 21,-7.93 18.73,-4.785 33,-5.488 42.79,-2.089 9.8,3.378 15.82,9.433 18.05,18.125 1.05,4.14 0.91,7.89 -0.47,11.171 -1.35,3.301 -3.66,6.172 -6.94,8.594 -3.28,2.422 -7.24,4.551 -11.95,6.367 -4.69,1.836 -9.8,3.477 -15.33,4.883 -9.08,2.324 -18.69,4.844 -28.85,7.559 -10.14,2.695 -19.14,6.367 -26.99,10.996 -7.87,4.648 -13.83,10.547 -17.89,17.695 -4.08,7.11 -4.69,16.328 -1.8,27.559 1.82,7.09 5.45,13.047 10.92,17.851 5.43,4.805 12.09,8.418 19.98,10.821 7.87,2.382 16.78,3.554 26.66,3.554 9.88,-0.019 20.27,-1.425 31.13,-4.199 8.52,-2.168 15.73,-4.648 21.68,-7.422 5.88,-2.773 10.96,-5.449 15.16,-7.988 4.2,-2.539 7.6,-4.805 10.27,-6.738 2.66,-1.934 4.98,-3.164 6.95,-3.672 2.15,-0.567 3.85,-0.567 5.04,-0.02 1.18,0.528 2.39,1.153 3.64,1.914 l 3.18,-2.402 -25,-29.844 -2.71,2.91 c 0.29,0.547 0.68,1.817 1.19,3.789 0.33,1.368 -0.39,3.36 -2.27,5.938 -1.85,2.559 -4.73,5.351 -8.59,8.359 -3.87,2.969 -8.65,5.879 -14.36,8.711 -5.68,2.813 -12.09,5.157 -19.22,6.953 -15.99,4.121 -29.33,4.786 -40.04,2.071 -10.7,-2.754 -17.12,-8.243 -19.25,-16.524 -0.96,-3.769 -0.69,-7.051 0.82,-9.863 1.48,-2.793 3.88,-5.293 7.2,-7.52 3.34,-2.226 7.37,-4.14 12.09,-5.781 4.75,-1.64 9.91,-3.144 15.41,-4.57 9.3,-2.383 18.93,-5 28.93,-7.871 10,-2.891 18.89,-6.797 26.66,-11.738 7.81,-4.961 13.67,-11.192 17.64,-18.692 3.96,-7.558 4.43,-17.226 1.4,-29.062 z m -13.68,56.195 c -8.51,5.418 -18.36,9.758 -29.25,12.902 -0.01,0.004 -29.22,7.953 -29.22,7.953 l -14.61,4.336 -9.82,4.649 c -1.9,1.281 -3.23,2.593 -3.93,3.89 -0.36,0.684 -0.17,1.848 0.04,2.711 0.47,1.793 1.71,6.637 12.06,9.301 9.03,2.285 20.83,1.594 35.05,-2.07 6.36,-1.602 12.16,-3.696 17.29,-6.235 l 12.69,-7.675 c -0.04,0.031 6.57,-6.27 6.59,-6.293 -0.11,-0.395 -1.48,-5.211 -1.48,-5.211 l 3.34,-5.473 10.43,-11.184 39.02,46.582 -16.65,12.567 c 0,0 -6.7,-3.555 -7.21,-3.824 -1.07,0.496 -3.48,1.879 -3.48,1.879 -0.03,0.019 -10.99,7.207 -10.99,7.207 l -16.06,8.476 c -6.59,3.071 -14.47,5.778 -23.48,8.071 -11.63,2.968 -22.93,4.488 -33.58,4.507 -10.9,0 -20.85,-1.336 -29.58,-3.984 -9.24,-2.813 -17.21,-7.152 -23.71,-12.899 -6.95,-6.105 -11.65,-13.804 -13.98,-22.863 -3.55,-13.793 -2.6,-25.586 2.82,-35.019 4.9,-8.618 12.12,-15.805 21.47,-21.328 8.62,-5.079 18.55,-9.129 29.51,-12.047 l 28.94,-7.582 c 0.02,-0.004 14.17,-4.508 14.17,-4.508 0.04,-0.02 9.66,-5.102 9.66,-5.102 1.77,-1.312 2.96,-2.73 3.61,-4.324 0.55,-1.305 0.55,-2.922 0.04,-4.922 -0.94,-3.64 -3.11,-8.211 -11.62,-11.144 -5.41,-1.879 -16.22,-2.996 -37.06,2.324 -6.62,1.719 -13,4.125 -18.93,7.148 -0.04,0.024 -15.89,9.903 -15.89,9.903 -4.21,3.297 -7.4,6.488 -9.5,9.488 0,0 -0.76,1.394 -1.12,2.066 0.75,1.094 4.4,6.438 4.4,6.438 l -5.78,6.598 -11.07,10.289 -37.15,-45.032 14.04,-14.375 c 0,0 7.39,4.055 7.4,4.059 0.89,-0.738 2.79,-2.145 2.79,-2.145 l 12.74,-10.238 c 0.01,-0.004 19.99,-11.934 19.99,-11.934 7.92,-3.941 17.68,-7.41 28.96,-10.312 13.33,-3.422 25.72,-5.105 36.84,-5 11.36,0.133 21.52,1.848 30.26,5.102 9.06,3.39 16.58,8.179 22.38,14.234 5.93,6.203 9.97,13.398 11.99,21.387 3.64,14.218 2.89,26.398 -2.24,36.168 -4.79,9.07 -11.9,16.625 -21.13,22.488" /><path
             id="path52"
             style="fill:#ffffff;fill-opacity:1;fill-rule:nonzero;stroke:none"
             d="m 1975.93,513.75 -3.42,1.289 c 0.92,2.481 0.92,4.727 -0.08,6.719 -0.97,2.012 -3.67,3.847 -8.03,5.488 l -89.04,33.828 -17.03,-44.883 57.93,-22.011 c 3.42,-1.289 6.45,-1.797 9.06,-1.504 2.64,0.332 4.51,2.012 5.67,5.058 l 3.41,-1.289 -13.1,-34.57 -3.44,1.309 c 1.1,2.832 1,5.156 -0.31,6.953 -1.25,1.797 -3.89,3.437 -7.89,4.961 l -58.52,22.226 -18.43,-48.574 95.33,-36.191 c 3.98,-1.543 7.2,-1.934 9.65,-1.231 2.44,0.684 4.35,2.852 5.74,6.465 l 3.42,-1.289 -12.91,-34.004 -3.42,1.309 c 1.35,3.613 -1.29,6.679 -7.95,9.218 l -127.95,48.575 1.33,3.418 c 2.63,-0.997 4.68,-1.075 6.11,-0.196 1.39,0.879 2.52,2.344 3.32,4.453 l 49.18,129.512 c 0.78,2.109 0.94,3.945 0.47,5.547 -0.49,1.602 -2.07,2.91 -4.73,3.906 l 1.31,3.438 119.67,-45.45 c 4.94,-1.875 8.24,-2.636 9.92,-2.246 1.66,0.352 2.89,1.641 3.73,3.789 l 3.42,-1.308 z m 3.82,46.719 c 0,0 -1.35,-2.957 -2.56,-5.61 -1.15,0.352 -2.37,0.723 -2.37,0.723 l -129,48.992 -8.25,-21.679 c 0,0 4.06,-1.766 6.72,-2.922 -6.19,-16.368 -41.52,-109.395 -47.37,-124.785 -2.64,0.839 -5.81,1.847 -5.81,1.847 l -4.48,-8.39 -4.98,-12.813 137.37,-52.156 c 0,0 0.43,-0.215 0.66,-0.321 -0.98,-2.613 -1.99,-5.343 -1.99,-5.343 l 22.04,-8.438 20.03,52.75 -21.3,8.031 c 0,0 -4.42,-9.085 -4.44,-9.109 -0.97,0.274 -2.37,0.641 -2.37,0.641 -0.05,0.019 -62.56,23.75 -86.04,32.664 3.52,9.289 7.81,20.586 11.33,29.875 13.21,-5.016 49.16,-18.68 49.16,-18.68 0,0 0.9,-0.437 1.8,-0.879 -0.84,-2.543 -2.27,-6.84 -2.27,-6.84 l 8.68,-4.187 12.79,-4.875 20.2,53.301 -21.74,8.203 c 0,0 -2.26,-5.301 -3.22,-7.535 -0.71,0.109 -1.18,0.086 -2.55,0.601 0,0 -32.19,12.231 -48.57,18.453 3.28,8.637 6.66,17.547 9.94,26.188 14.98,-5.696 79.69,-30.274 79.69,-30.274 0.02,-0.011 0.92,-0.449 1.82,-0.886 -0.72,-2.258 -2.3,-7.289 -2.3,-7.289 l 8.61,-4.043 12.76,-4.809 19.5,51.363 -21.49,8.231" /><path
             id="path54"
             style="fill:#d2103e;fill-opacity:1;fill-rule:nonzero;stroke:none"
             d="m 93.1133,419.082 -42.2461,112.773 55.5278,20.821 c 17.738,6.64 33.222,6.992 46.41,1.054 13.203,-5.918 23.281,-18.125 30.215,-36.66 6.929,-18.515 7.988,-34.101 3.164,-46.777 -4.829,-12.695 -15.625,-22.168 -32.407,-28.477 z m 96.5817,134.941 c -7.105,7.891 -15.175,13.926 -24.234,18.145 -9.106,4.199 -19.066,6.406 -29.902,6.582 -10.825,0.176 -22.168,-1.934 -33.965,-6.367 l -88.7346,-33.223 1.2929,-3.457 c 2.6524,1.016 4.7266,1.074 6.1289,0.176 1.4297,-0.879 2.5,-2.363 3.3047,-4.473 L 72.2344,401.504 c 0.7851,-2.09 0.9375,-3.926 0.4492,-5.527 -0.4648,-1.602 -2.0703,-2.911 -4.7227,-3.907 l 1.2657,-3.437 94.1644,35.273 c 11.636,4.375 21.187,10.059 28.671,17.09 7.458,7.051 12.95,15.039 16.485,23.965 3.492,8.945 5.039,18.594 4.629,29.004 -0.41,10.39 -2.656,21.015 -6.738,31.875 -4.067,10.879 -9.653,20.273 -16.743,28.183" /><path
             id="path56"
             style="fill:#d2103e;fill-opacity:1;fill-rule:nonzero;stroke:none"
             d="m 291.184,529.883 13.336,77.597 50.941,-61.542 z M 426.023,502.91 c -1.035,-0.058 -2.128,0.313 -3.257,1.094 -1.133,0.762 -2.461,1.992 -3.926,3.73 -1.485,1.739 -3.559,4.161 -6.235,7.266 l -86.343,103.77 c -2.422,2.968 -4.36,5.253 -5.824,6.894 -1.461,1.621 -2.34,3.027 -2.618,4.219 -0.601,2.363 0.688,3.945 3.852,4.746 l -0.902,3.574 -43.258,-10.84 0.894,-3.535 c 3.559,0.879 5.649,0.137 6.235,-2.246 0.23,-0.977 0.171,-2.422 -0.2,-4.297 -0.371,-1.875 -0.918,-4.687 -1.66,-8.437 L 259.07,475.684 c -0.781,-3.575 -1.425,-6.387 -1.953,-8.516 -0.508,-2.129 -1.031,-3.789 -1.582,-4.98 -0.547,-1.172 -1.25,-1.954 -2.066,-2.403 -0.864,-0.41 -1.836,-0.781 -3.047,-1.055 l 0.894,-3.554 36.426,9.101 -0.879,3.555 c -3.355,-0.859 -5.308,-0.195 -5.84,1.992 -0.293,1.172 -0.234,2.969 0.215,5.371 0.45,2.422 0.84,4.61 1.196,6.602 l 4.16,26.172 83.828,20.976 17.168,-20.859 c 2.461,-3.164 4.082,-5.234 4.859,-6.172 0.742,-0.976 1.25,-1.953 1.504,-2.93 0.332,-1.386 0.219,-2.519 -0.406,-3.398 -0.625,-0.898 -2.109,-1.641 -4.477,-2.246 l 0.879,-3.535 41.172,10.293 -0.855,3.554 c -1.797,-0.449 -3.204,-0.683 -4.243,-0.742" /><path
             id="path58"
             style="fill:#d2103e;fill-opacity:1;fill-rule:nonzero;stroke:none"
             d="m 574.719,652.07 c 1.441,-2.636 2.5,-5.957 3.14,-10 1.25,-8.027 -0.254,-14.765 -4.531,-20.156 -4.312,-5.43 -12.598,-9.102 -24.844,-11.074 l -66.074,-10.469 -7.754,48.789 64.555,10.254 c 7.051,1.113 12.891,1.582 17.559,1.406 4.668,-0.195 8.457,-1.035 11.382,-2.519 2.91,-1.504 5.102,-3.574 6.567,-6.231 z m 46.093,-116.054 c -1.488,0.781 -3.578,2.617 -6.292,5.468 l -47.364,52.774 c 14.785,4.375 24.887,10.859 30.356,19.355 5.449,8.535 7.168,19.102 5.156,31.797 -2.27,14.317 -8.32,24.512 -18.188,30.684 -9.839,6.191 -24.722,7.695 -44.625,4.531 l -101.078,-16.055 0.586,-3.613 c 2.817,0.449 4.825,0.098 6.035,-1.035 1.211,-1.172 1.997,-2.852 2.344,-5.059 L 469.52,517.852 c 0.335,-2.227 0.097,-4.043 -0.68,-5.508 -0.805,-1.465 -2.602,-2.442 -5.434,-2.871 l 0.586,-3.633 39.848,6.328 -0.57,3.613 c -2.809,-0.449 -4.825,-0.097 -6.036,1.035 -1.211,1.172 -1.992,2.832 -2.339,5.059 l -9.204,57.891 55.469,8.808 46.485,-53.203 c 1.171,-0.859 1.835,-1.875 2.05,-3.086 0.141,-0.976 -0.078,-1.738 -0.718,-2.265 -0.649,-0.528 -2.289,-0.997 -4.907,-1.387 l 0.586,-3.613 43.457,6.875 -0.601,3.632 c -2.992,-0.488 -5.254,-0.332 -6.7,0.489" /><path
             id="path60"
             style="fill:#d2103e;fill-opacity:1;fill-rule:nonzero;stroke:none"
             d="m 836.199,555.664 c -1.426,0.977 -3.14,2.715 -5.215,5.215 l -81.226,88.183 54.722,48.711 c 3.633,3.165 6.211,5.293 7.739,6.465 1.519,1.153 3.828,1.856 6.875,2.11 l -0.317,3.652 -45.625,-3.828 0.293,-3.652 c 1.621,0.117 2.817,-0.079 3.575,-0.625 0.761,-0.547 1.156,-1.114 1.21,-1.758 0.082,-0.801 -0.21,-1.543 -0.859,-2.188 -0.683,-0.683 -1.68,-1.582 -3.008,-2.715 l -77.539,-69.023 -5.215,62.051 c -0.191,2.246 0.176,4.062 1.079,5.468 0.898,1.407 2.773,2.247 5.624,2.461 l -0.316,3.653 -40.191,-3.36 0.293,-3.652 c 2.847,0.215 4.824,-0.273 5.957,-1.484 1.133,-1.25 1.773,-3.008 1.968,-5.215 l 11.606,-138.145 c 0.176,-2.226 -0.195,-4.023 -1.074,-5.449 -0.918,-1.387 -2.778,-2.207 -5.625,-2.461 l 0.308,-3.652 40.2,3.379 -0.317,3.672 c -2.851,-0.254 -4.82,0.234 -5.933,1.484 -1.133,1.211 -1.782,2.949 -1.973,5.195 l -4.492,53.555 33.632,29.785 66.461,-72.558 c 2.93,-3.028 4.454,-5.45 4.59,-7.286 0.141,-1.621 -1.109,-2.539 -3.75,-2.754 l 0.317,-3.652 41.992,3.516 -0.317,3.672 c -2.222,-0.196 -4.043,0.195 -5.449,1.23" /><path
             id="path62"
             style="fill:#d2103e;fill-opacity:1;fill-rule:nonzero;stroke:none"
             d="m 1098.97,701.953 -0.74,-57.519 -108.218,1.386 0.758,57.52 c 0.023,2.226 0.546,4.023 1.566,5.332 1.055,1.328 2.984,1.953 5.84,1.894 l 0.054,3.692 -40.25,0.508 -0.042,-3.653 c 2.832,-0.039 4.765,-0.722 5.761,-2.07 0.996,-1.348 1.489,-3.125 1.469,-5.371 L 963.391,565 c -0.039,-2.266 -0.571,-4.043 -1.606,-5.352 -1.031,-1.308 -2.984,-1.933 -5.816,-1.914 l -0.063,-3.672 40.254,-0.507 0.063,3.672 c -2.856,0.019 -4.785,0.703 -5.801,2.05 -0.996,1.328 -1.484,3.125 -1.445,5.352 l 0.781,61.035 108.202,-1.387 -0.76,-61.015 c -0.04,-2.266 -0.57,-4.004 -1.6,-5.332 -1.04,-1.309 -2.99,-1.953 -5.82,-1.914 l -0.06,-3.672 40.25,-0.489 0.04,3.653 c -2.85,0.039 -4.77,0.722 -5.76,2.07 -1.02,1.328 -1.51,3.125 -1.45,5.371 l 1.76,138.692 c 0.02,2.246 0.57,4.023 1.6,5.312 1.04,1.328 2.97,1.953 5.8,1.934 l 0.06,3.672 -40.23,0.488 -0.04,-3.652 c 2.83,-0.04 4.74,-0.723 5.76,-2.071 1,-1.347 1.48,-3.125 1.46,-5.371" /><path
             id="path64"
             style="fill:#d2103e;fill-opacity:1;fill-rule:nonzero;stroke:none"
             d="m 1335.69,616.719 c -1.64,-19.063 -8.53,-33.555 -20.74,-43.438 -12.21,-9.902 -28.67,-13.945 -49.43,-12.168 -20.71,1.758 -36.27,8.555 -46.62,20.352 -10.37,11.816 -14.75,27.265 -13.11,46.328 1.62,19.062 8.54,33.555 20.78,43.437 12.19,9.883 28.65,13.946 49.38,12.208 20.76,-1.797 36.31,-8.575 46.64,-20.391 10.37,-11.817 14.72,-27.266 13.1,-46.328 z m 5.82,60.586 c -7.61,7.675 -16.85,13.789 -27.73,18.281 -10.84,4.492 -22.87,7.305 -36.07,8.437 -13.19,1.114 -25.51,0.391 -36.98,-2.207 -11.46,-2.597 -21.62,-7.05 -30.41,-13.32 -8.81,-6.308 -15.94,-14.316 -21.36,-24.062 -5.43,-9.727 -8.72,-21.192 -9.83,-34.375 -1.13,-13.184 0.16,-25.039 3.85,-35.547 3.73,-10.547 9.37,-19.59 17.01,-27.168 7.64,-7.598 16.89,-13.555 27.75,-17.852 10.88,-4.297 22.91,-6.992 36.12,-8.105 13.16,-1.153 25.51,-0.528 36.95,1.894 11.45,2.383 21.56,6.68 30.37,12.871 8.81,6.192 15.92,14.141 21.37,23.907 5.43,9.726 8.69,21.191 9.8,34.355 1.14,13.184 -0.13,25.02 -3.84,35.566 -3.7,10.508 -9.38,19.61 -17,27.325" /><path
             id="path66"
             style="fill:#d2103e;fill-opacity:1;fill-rule:nonzero;stroke:none"
             d="m 1510.65,602.09 -66.05,10.82 7.95,48.555 64.53,-10.547 c 7.07,-1.172 12.77,-2.539 17.15,-4.199 4.37,-1.621 7.71,-3.633 10.02,-5.918 2.3,-2.344 3.71,-5 4.28,-7.969 0.54,-2.969 0.48,-6.445 -0.16,-10.43 -1.31,-8.007 -4.84,-13.867 -10.65,-17.656 -5.78,-3.789 -14.8,-4.687 -27.07,-2.656 z m 13.73,68.789 -101.07,16.523 -0.59,-3.593 c 2.82,-0.469 4.61,-1.446 5.4,-2.891 0.8,-1.504 0.99,-3.34 0.66,-5.547 L 1406.4,538.555 c -0.37,-2.207 -1.18,-3.887 -2.39,-5.02 -1.23,-1.172 -3.24,-1.504 -6.05,-1.035 l -0.57,-3.613 39.85,-6.504 0.56,3.594 c -2.79,0.468 -4.61,1.445 -5.39,2.91 -0.8,1.465 -1.01,3.301 -0.64,5.527 l 9.47,57.891 55.49,-9.082 27.42,-65.157 c 0.82,-1.171 1.13,-2.363 0.98,-3.574 -0.2,-1.015 -0.67,-1.66 -1.41,-1.933 -0.8,-0.293 -2.48,-0.215 -5.08,0.195 l -0.58,-3.613 43.4,-7.09 0.58,3.613 c -3.03,0.508 -5.1,1.348 -6.23,2.559 -1.15,1.23 -2.58,3.613 -4.26,7.207 l -28.34,65.019 c 15.39,-0.488 27.05,2.481 34.91,8.828 7.83,6.348 12.79,15.821 14.88,28.496 2.34,14.239 -0.22,25.86 -7.64,34.805 -7.42,8.945 -21.07,15.059 -40.98,18.301" /><path
             id="path68"
             style="fill:#d2103e;fill-opacity:1;fill-rule:nonzero;stroke:none"
             d="m 1746.26,549.688 c -7.77,4.941 -16.66,8.847 -26.66,11.738 -10,2.871 -19.63,5.488 -28.93,7.871 -5.5,1.426 -10.66,2.93 -15.41,4.57 -4.72,1.641 -8.75,3.555 -12.09,5.781 -3.32,2.227 -5.72,4.727 -7.2,7.52 -1.51,2.812 -1.78,6.094 -0.82,9.863 2.13,8.281 8.55,13.77 19.25,16.524 10.71,2.715 24.05,2.05 40.04,-2.071 7.13,-1.796 13.54,-4.14 19.22,-6.953 5.71,-2.832 10.49,-5.742 14.36,-8.711 3.86,-3.008 6.74,-5.8 8.59,-8.359 1.88,-2.578 2.6,-4.57 2.27,-5.938 -0.51,-1.972 -0.9,-3.242 -1.19,-3.789 l 2.71,-2.91 25,29.844 -3.18,2.402 c -1.25,-0.761 -2.46,-1.386 -3.64,-1.914 -1.19,-0.547 -2.89,-0.547 -5.04,0.02 -1.97,0.508 -4.29,1.738 -6.95,3.672 -2.67,1.933 -6.07,4.199 -10.27,6.738 -4.2,2.539 -9.28,5.215 -15.16,7.988 -5.95,2.774 -13.16,5.254 -21.68,7.422 -10.86,2.774 -21.25,4.18 -31.13,4.199 -9.88,0 -18.79,-1.172 -26.66,-3.554 -7.89,-2.403 -14.55,-6.016 -19.98,-10.821 -5.47,-4.804 -9.1,-10.761 -10.92,-17.851 -2.89,-11.231 -2.28,-20.449 1.8,-27.559 4.06,-7.148 10.02,-13.047 17.89,-17.695 7.85,-4.629 16.85,-8.301 26.99,-10.996 10.16,-2.715 19.77,-5.235 28.85,-7.559 5.53,-1.406 10.64,-3.047 15.33,-4.883 4.71,-1.816 8.67,-3.945 11.95,-6.367 3.28,-2.422 5.59,-5.293 6.94,-8.594 1.38,-3.281 1.52,-7.031 0.47,-11.171 -2.23,-8.692 -8.25,-14.747 -18.05,-18.125 -9.79,-3.399 -24.06,-2.696 -42.79,2.089 -7.31,1.895 -14.3,4.512 -21,7.93 -6.7,3.379 -12.54,7.031 -17.52,10.938 -4.98,3.906 -8.83,7.773 -11.52,11.621 -2.7,3.847 -3.69,7.148 -2.97,9.902 0.29,1.172 0.92,2.402 1.85,3.613 l -3.3,3.067 -24.68,-29.922 2.48,-2.539 c 2.79,1.816 5.15,2.441 7.14,1.972 2.15,-0.566 4.77,-2.246 7.86,-5.019 3.08,-2.774 7.09,-5.977 12.03,-9.649 4.92,-3.652 11.07,-7.343 18.45,-10.996 7.35,-3.652 16.37,-6.855 27.02,-9.589 12.61,-3.243 24.04,-4.786 34.25,-4.688 10.22,0.117 19.16,1.602 26.86,4.473 7.67,2.871 13.89,6.797 18.65,11.777 4.75,4.961 7.93,10.625 9.53,16.934 3.03,11.836 2.56,21.504 -1.4,29.062 -3.97,7.5 -9.83,13.731 -17.64,18.692" /><path
             id="path70"
             style="fill:#d2103e;fill-opacity:1;fill-rule:nonzero;stroke:none"
             d="m 1984.93,547.773 c -0.84,-2.148 -2.07,-3.437 -3.73,-3.789 -1.68,-0.39 -4.98,0.371 -9.92,2.246 l -119.67,45.45 -1.31,-3.438 c 2.66,-0.996 4.24,-2.304 4.73,-3.906 0.47,-1.602 0.31,-3.438 -0.47,-5.547 l -49.18,-129.512 c -0.8,-2.109 -1.93,-3.574 -3.32,-4.453 -1.43,-0.879 -3.48,-0.801 -6.11,0.196 l -1.33,-3.418 127.95,-48.575 c 6.66,-2.539 9.3,-5.605 7.95,-9.218 l 3.42,-1.309 12.91,34.004 -3.42,1.289 c -1.39,-3.613 -3.3,-5.781 -5.74,-6.465 -2.45,-0.703 -5.67,-0.312 -9.65,1.231 l -95.33,36.191 18.43,48.574 58.52,-22.226 c 4,-1.524 6.64,-3.164 7.89,-4.961 1.31,-1.797 1.41,-4.121 0.31,-6.953 l 3.44,-1.309 13.1,34.57 -3.41,1.289 c -1.16,-3.046 -3.03,-4.726 -5.67,-5.058 -2.61,-0.293 -5.64,0.215 -9.06,1.504 l -57.93,22.011 17.03,44.883 89.04,-33.828 c 4.36,-1.641 7.06,-3.476 8.03,-5.488 1,-1.992 1,-4.238 0.08,-6.719 l 3.42,-1.289 12.42,32.715 -3.42,1.308" /><path
             id="path72"
             style="fill:#d2103e;fill-opacity:1;fill-rule:nonzero;stroke:none"
             d="m 407.578,74.6875 8.692,-26.7578 28.105,0.0195 -22.734,-16.5234 8.671,-26.7383 -22.734,16.5234 -22.754,-16.5234 8.711,26.7383 -22.754,16.5234 28.106,-0.0195 8.691,26.7578" /><path
             id="path74"
             style="fill:#d2103e;fill-opacity:1;fill-rule:nonzero;stroke:none"
             d="m 1593.67,74.6875 8.67,-26.7578 28.11,0.0195 -22.75,-16.5234 8.73,-26.7383 -22.76,16.5234 -22.73,-16.5234 8.67,26.7383 -22.73,16.5234 28.08,-0.0195 8.71,26.7578" /><path
             id="path76"
             style="fill:#ffffff;fill-opacity:1;fill-rule:nonzero;stroke:none"
             d="m 536.172,54.4727 c -0.332,0.4492 -0.996,0.664 -1.914,0.664 v 1.2305 h 42.519 c 1.739,0 2.871,0.1172 3.321,0.4492 0.507,0.293 0.722,0.8008 0.722,1.543 h 1.211 V 46.7969 h -1.211 c 0,0.8593 -0.273,1.5625 -0.82,2.0703 -0.527,0.5078 -1.562,0.7617 -3.145,0.7617 h -31.66 V 33.6523 h 20.606 c 1.211,0 2.207,0.1758 2.988,0.586 0.781,0.4101 1.172,1.1523 1.172,2.2461 h 1.23 V 24.1797 h -1.23 c 0,0.9961 -0.313,1.6992 -0.918,2.1094 -0.605,0.4101 -1.621,0.625 -3.027,0.625 H 545.195 V 9.6875 h 33.907 c 1.406,0 2.48,0.23438 3.144,0.7422 0.664,0.5078 0.996,1.4062 0.996,2.6953 h 1.231 V 0.996094 h -1.231 c 0,1.308596 -1.172,1.953126 -3.554,1.953126 h -45.43 v 1.23047 c 0.918,0 1.582,0.21484 1.914,0.64453 0.332,0.42969 0.488,1.03516 0.488,1.77734 V 52.6953 c 0,0.7617 -0.156,1.3281 -0.488,1.7774" /><path
             id="path78"
             style="fill:none;stroke:#ffffff;stroke-width:2;stroke-linecap:butt;stroke-linejoin:miter;stroke-miterlimit:4;stroke-dasharray:none;stroke-opacity:1"
             d="m 536.172,54.4727 c -0.332,0.4492 -0.996,0.664 -1.914,0.664 v 1.2305 h 42.519 c 1.739,0 2.871,0.1172 3.321,0.4492 0.507,0.293 0.722,0.8008 0.722,1.543 h 1.211 V 46.7969 h -1.211 c 0,0.8593 -0.273,1.5625 -0.82,2.0703 -0.527,0.5078 -1.562,0.7617 -3.145,0.7617 h -31.66 V 33.6523 h 20.606 c 1.211,0 2.207,0.1758 2.988,0.586 0.781,0.4101 1.172,1.1523 1.172,2.2461 h 1.23 V 24.1797 h -1.23 c 0,0.9961 -0.313,1.6992 -0.918,2.1094 -0.605,0.4101 -1.621,0.625 -3.027,0.625 H 545.195 V 9.6875 h 33.907 c 1.406,0 2.48,0.23438 3.144,0.7422 0.664,0.5078 0.996,1.4062 0.996,2.6953 h 1.231 V 0.996094 h -1.231 c 0,1.308596 -1.172,1.953126 -3.554,1.953126 h -45.43 v 1.23047 c 0.918,0 1.582,0.21484 1.914,0.64453 0.332,0.42969 0.488,1.03516 0.488,1.77734 V 52.6953 c 0,0.7617 -0.156,1.3281 -0.488,1.7774 z" /><path
             id="path80"
             style="fill:#ffffff;fill-opacity:1;fill-rule:nonzero;stroke:none"
             d="m 621.074,18.9453 c -0.195,-0.4883 -0.293,-0.9375 -0.293,-1.3086 0,-0.9765 0.567,-1.9336 1.778,-2.9492 1.171,-1.0156 2.734,-1.9727 4.668,-2.793 1.914,-0.8593 4.101,-1.5625 6.543,-2.08981 2.441,-0.52735 4.902,-0.80078 7.421,-0.80078 6.426,0 11.055,0.95703 13.926,2.85159 2.891,1.8945 4.336,4.3359 4.336,7.3242 0,1.4258 -0.351,2.6172 -1.074,3.5742 -0.703,0.9375 -1.699,1.6797 -2.949,2.1875 -1.25,0.5274 -2.696,0.8789 -4.356,1.0547 -1.66,0.2344 -3.418,0.3125 -5.332,0.3125 -3.105,0 -6.406,0.0195 -9.883,0.0586 -3.496,0.039 -6.679,0.4687 -9.589,1.3086 -2.911,0.8398 -5.313,2.2461 -7.188,4.2187 -1.894,1.9727 -2.832,4.8633 -2.832,8.711 0,2.4414 0.664,4.6484 2.012,6.6601 1.367,1.9922 3.203,3.6914 5.527,5.1172 2.344,1.4258 5.078,2.5391 8.262,3.3594 3.183,0.8203 6.64,1.2109 10.351,1.2109 2.891,0 5.41,-0.2148 7.559,-0.6054 2.109,-0.4102 3.945,-0.8594 5.527,-1.3477 1.543,-0.4492 2.832,-0.8984 3.848,-1.3086 0.996,-0.4102 1.855,-0.6055 2.519,-0.6055 0.762,0 1.309,0.1368 1.641,0.4102 0.352,0.2539 0.664,0.5469 1.035,0.918 l 1.211,-0.5274 -5.586,-11.6797 -1.074,0.7032 c 0.02,0.2148 0.039,0.6445 0.039,1.3281 0,0.4687 -0.41,1.0547 -1.211,1.7187 -0.82,0.6836 -1.953,1.3477 -3.457,1.9922 -1.484,0.625 -3.242,1.1719 -5.312,1.6016 -2.051,0.4492 -4.297,0.6836 -6.739,0.6836 -5.468,0 -9.804,-0.8985 -13.007,-2.6563 -3.204,-1.7383 -4.805,-4.0429 -4.805,-6.8945 0,-1.2695 0.351,-2.2852 1.055,-3.0859 0.703,-0.7813 1.699,-1.3672 2.949,-1.7969 1.25,-0.4492 2.695,-0.7422 4.375,-0.8985 1.621,-0.1171 3.418,-0.1757 5.312,-0.1757 3.164,0 6.485,-0.0586 9.922,-0.1563 3.477,-0.0976 6.641,-0.625 9.531,-1.582 2.911,-0.9571 5.313,-2.461 7.207,-4.5703 1.895,-2.1094 2.852,-5.1953 2.852,-9.2383 0,-2.168 -0.566,-4.2383 -1.68,-6.25 -1.113,-1.9922 -2.812,-3.76954 -5.039,-5.33204 -2.226,-1.54297 -5,-2.77344 -8.281,-3.65235 -3.281,-0.8789 -7.09,-1.32812 -11.426,-1.32812 -3.633,0 -6.816,0.29297 -9.492,0.8789 -2.656,0.54688 -4.941,1.23047 -6.836,2.01172 -1.894,0.76172 -3.457,1.48438 -4.668,2.10938 -1.23,0.66406 -2.207,0.97656 -2.949,0.97656 -0.664,0 -1.387,-0.39063 -2.129,-1.21094 l -0.996,0.58594 5.469,11.67965 1.308,-0.7031" /><path
             id="path82"
             style="fill:none;stroke:#ffffff;stroke-width:2;stroke-linecap:butt;stroke-linejoin:miter;stroke-miterlimit:4;stroke-dasharray:none;stroke-opacity:1"
             d="m 621.074,18.9453 c -0.195,-0.4883 -0.293,-0.9375 -0.293,-1.3086 0,-0.9765 0.567,-1.9336 1.778,-2.9492 1.171,-1.0156 2.734,-1.9727 4.668,-2.793 1.914,-0.8593 4.101,-1.5625 6.543,-2.08981 2.441,-0.52735 4.902,-0.80078 7.421,-0.80078 6.426,0 11.055,0.95703 13.926,2.85159 2.891,1.8945 4.336,4.3359 4.336,7.3242 0,1.4258 -0.351,2.6172 -1.074,3.5742 -0.703,0.9375 -1.699,1.6797 -2.949,2.1875 -1.25,0.5274 -2.696,0.8789 -4.356,1.0547 -1.66,0.2344 -3.418,0.3125 -5.332,0.3125 -3.105,0 -6.406,0.0195 -9.883,0.0586 -3.496,0.039 -6.679,0.4687 -9.589,1.3086 -2.911,0.8398 -5.313,2.2461 -7.188,4.2187 -1.894,1.9727 -2.832,4.8633 -2.832,8.711 0,2.4414 0.664,4.6484 2.012,6.6601 1.367,1.9922 3.203,3.6914 5.527,5.1172 2.344,1.4258 5.078,2.5391 8.262,3.3594 3.183,0.8203 6.64,1.2109 10.351,1.2109 2.891,0 5.41,-0.2148 7.559,-0.6054 2.109,-0.4102 3.945,-0.8594 5.527,-1.3477 1.543,-0.4492 2.832,-0.8984 3.848,-1.3086 0.996,-0.4102 1.855,-0.6055 2.519,-0.6055 0.762,0 1.309,0.1368 1.641,0.4102 0.352,0.2539 0.664,0.5469 1.035,0.918 l 1.211,-0.5274 -5.586,-11.6797 -1.074,0.7032 c 0.02,0.2148 0.039,0.6445 0.039,1.3281 0,0.4687 -0.41,1.0547 -1.211,1.7187 -0.82,0.6836 -1.953,1.3477 -3.457,1.9922 -1.484,0.625 -3.242,1.1719 -5.312,1.6016 -2.051,0.4492 -4.297,0.6836 -6.739,0.6836 -5.468,0 -9.804,-0.8985 -13.007,-2.6563 -3.204,-1.7383 -4.805,-4.0429 -4.805,-6.8945 0,-1.2695 0.351,-2.2852 1.055,-3.0859 0.703,-0.7813 1.699,-1.3672 2.949,-1.7969 1.25,-0.4492 2.695,-0.7422 4.375,-0.8985 1.621,-0.1171 3.418,-0.1757 5.312,-0.1757 3.164,0 6.485,-0.0586 9.922,-0.1563 3.477,-0.0976 6.641,-0.625 9.531,-1.582 2.911,-0.9571 5.313,-2.461 7.207,-4.5703 1.895,-2.1094 2.852,-5.1953 2.852,-9.2383 0,-2.168 -0.566,-4.2383 -1.68,-6.25 -1.113,-1.9922 -2.812,-3.76954 -5.039,-5.33204 -2.226,-1.54297 -5,-2.77344 -8.281,-3.65235 -3.281,-0.8789 -7.09,-1.32812 -11.426,-1.32812 -3.633,0 -6.816,0.29297 -9.492,0.8789 -2.656,0.54688 -4.941,1.23047 -6.836,2.01172 -1.894,0.76172 -3.457,1.48438 -4.668,2.10938 -1.23,0.66406 -2.207,0.97656 -2.949,0.97656 -0.664,0 -1.387,-0.39063 -2.129,-1.21094 l -0.996,0.58594 5.469,11.67965 z" /><path
             id="path84"
             style="fill:#ffffff;fill-opacity:1;fill-rule:nonzero;stroke:none"
             d="m 733.555,32.9883 c 4.14,0 7.07,0.7812 8.75,2.3242 1.699,1.582 2.539,3.7109 2.539,6.4258 0,2.6562 -0.762,4.5898 -2.285,5.8398 -1.524,1.25 -4.512,1.8946 -9.004,1.8946 H 710.566 V 32.9883 Z m -31.993,21.4844 c -0.332,0.4492 -0.996,0.664 -1.933,0.664 v 1.2305 h 34.121 c 6.699,0 11.523,-1.2891 14.414,-3.7891 2.91,-2.4804 4.375,-5.9961 4.375,-10.5273 0,-5.0781 -1.445,-9.0039 -4.316,-11.7969 -2.871,-2.7734 -7.598,-4.1406 -14.18,-4.1406 H 710.566 V 6.60156 c 0,-0.74218 0.196,-1.34765 0.508,-1.77734 0.352,-0.42969 0.977,-0.64453 1.934,-0.64453 V 2.94922 h -13.379 v 1.23047 c 0.937,0 1.601,0.21484 1.933,0.64453 0.333,0.42969 0.489,1.03516 0.489,1.77734 V 52.6953 c 0,0.7617 -0.156,1.3281 -0.489,1.7774" /><path
             id="path86"
             style="fill:none;stroke:#ffffff;stroke-width:2;stroke-linecap:butt;stroke-linejoin:miter;stroke-miterlimit:4;stroke-dasharray:none;stroke-opacity:1"
             d="m 733.555,32.9883 c 4.14,0 7.07,0.7812 8.75,2.3242 1.699,1.582 2.539,3.7109 2.539,6.4258 0,2.6562 -0.762,4.5898 -2.285,5.8398 -1.524,1.25 -4.512,1.8946 -9.004,1.8946 H 710.566 V 32.9883 Z m -31.993,21.4844 c -0.332,0.4492 -0.996,0.664 -1.933,0.664 v 1.2305 h 34.121 c 6.699,0 11.523,-1.2891 14.414,-3.7891 2.91,-2.4804 4.375,-5.9961 4.375,-10.5273 0,-5.0781 -1.445,-9.0039 -4.316,-11.7969 -2.871,-2.7734 -7.598,-4.1406 -14.18,-4.1406 H 710.566 V 6.60156 c 0,-0.74218 0.196,-1.34765 0.508,-1.77734 0.352,-0.42969 0.977,-0.64453 1.934,-0.64453 V 2.94922 h -13.379 v 1.23047 c 0.937,0 1.601,0.21484 1.933,0.64453 0.333,0.42969 0.489,1.03516 0.489,1.77734 V 52.6953 c 0,0.7617 -0.156,1.3281 -0.489,1.7774 z" /><path
             id="path88"
             style="fill:#ffffff;fill-opacity:1;fill-rule:nonzero;stroke:none"
             d="m 816.758,32.9883 c 4.101,0 7.051,0.7812 8.711,2.3242 1.719,1.582 2.558,3.7109 2.558,6.4258 0,1.3476 -0.175,2.5 -0.507,3.457 -0.332,0.9375 -0.958,1.7383 -1.836,2.3828 -0.879,0.6446 -2.071,1.1328 -3.594,1.4258 -1.524,0.293 -3.457,0.4688 -5.84,0.4688 H 794.531 V 32.9883 Z M 795.02,4.82422 c 0.351,-0.42969 0.996,-0.64453 1.933,-0.64453 V 2.94922 h -13.379 v 1.23047 c 0.957,0 1.582,0.21484 1.934,0.64453 0.332,0.42969 0.508,1.03516 0.508,1.77734 V 52.6953 c 0,0.7617 -0.176,1.3281 -0.508,1.7774 -0.352,0.4492 -0.977,0.664 -1.934,0.664 v 1.2305 h 34.004 c 6.719,0 11.504,-1.2891 14.434,-3.8281 2.91,-2.5391 4.375,-6.211 4.375,-11.0157 0,-4.2773 -1.133,-7.6562 -3.36,-10.1562 -2.226,-2.5195 -5.898,-4.1016 -10.976,-4.7852 L 834.824,6.81641 c 0.762,-1.09375 1.348,-1.79688 1.797,-2.12891 0.449,-0.35156 1.172,-0.50781 2.168,-0.50781 V 2.94922 h -14.59 v 1.23047 c 0.86,0 1.426,0.05859 1.66,0.17578 0.254,0.13672 0.352,0.39062 0.352,0.72265 0,0.41016 -0.156,0.78126 -0.508,1.11329 l -12.5,19.92189 H 794.531 V 6.60156 c 0,-0.74218 0.157,-1.34765 0.489,-1.77734" /><path
             id="path90"
             style="fill:none;stroke:#ffffff;stroke-width:2;stroke-linecap:butt;stroke-linejoin:miter;stroke-miterlimit:4;stroke-dasharray:none;stroke-opacity:1"
             d="m 816.758,32.9883 c 4.101,0 7.051,0.7812 8.711,2.3242 1.719,1.582 2.558,3.7109 2.558,6.4258 0,1.3476 -0.175,2.5 -0.507,3.457 -0.332,0.9375 -0.958,1.7383 -1.836,2.3828 -0.879,0.6446 -2.071,1.1328 -3.594,1.4258 -1.524,0.293 -3.457,0.4688 -5.84,0.4688 H 794.531 V 32.9883 Z M 795.02,4.82422 c 0.351,-0.42969 0.996,-0.64453 1.933,-0.64453 V 2.94922 h -13.379 v 1.23047 c 0.957,0 1.582,0.21484 1.934,0.64453 0.332,0.42969 0.508,1.03516 0.508,1.77734 V 52.6953 c 0,0.7617 -0.176,1.3281 -0.508,1.7774 -0.352,0.4492 -0.977,0.664 -1.934,0.664 v 1.2305 h 34.004 c 6.719,0 11.504,-1.2891 14.434,-3.8281 2.91,-2.5391 4.375,-6.211 4.375,-11.0157 0,-4.2773 -1.133,-7.6562 -3.36,-10.1562 -2.226,-2.5195 -5.898,-4.1016 -10.976,-4.7852 L 834.824,6.81641 c 0.762,-1.09375 1.348,-1.79688 1.797,-2.12891 0.449,-0.35156 1.172,-0.50781 2.168,-0.50781 V 2.94922 h -14.59 v 1.23047 c 0.86,0 1.426,0.05859 1.66,0.17578 0.254,0.13672 0.352,0.39062 0.352,0.72265 0,0.41016 -0.156,0.78126 -0.508,1.11329 l -12.5,19.92189 H 794.531 V 6.60156 c 0,-0.74218 0.157,-1.34765 0.489,-1.77734 z" /><path
             id="path92"
             style="fill:#ffffff;fill-opacity:1;fill-rule:nonzero;stroke:none"
             d="m 873.398,54.4727 c -0.332,0.4492 -0.996,0.664 -1.933,0.664 v 1.2305 h 42.519 c 1.739,0 2.871,0.1172 3.34,0.4492 0.488,0.293 0.703,0.8008 0.703,1.543 h 1.231 V 46.7969 h -1.231 c 0,0.8593 -0.273,1.5625 -0.8,2.0703 -0.547,0.5078 -1.602,0.7617 -3.145,0.7617 h -31.68 V 33.6523 h 20.606 c 1.23,0 2.226,0.1758 3.008,0.586 0.761,0.4101 1.152,1.1523 1.152,2.2461 h 1.23 V 24.1797 h -1.23 c 0,0.9961 -0.293,1.6992 -0.898,2.1094 -0.606,0.4101 -1.641,0.625 -3.047,0.625 H 882.402 V 9.6875 h 33.907 c 1.425,0 2.461,0.23438 3.144,0.7422 0.684,0.5078 1.016,1.4062 1.016,2.6953 h 1.211 V 0.996094 h -1.211 c 0,1.308596 -1.172,1.953126 -3.555,1.953126 h -45.449 v 1.23047 c 0.937,0 1.601,0.21484 1.933,0.64453 0.332,0.42969 0.508,1.03516 0.508,1.77734 V 52.6953 c 0,0.7617 -0.176,1.3281 -0.508,1.7774" /><path
             id="path94"
             style="fill:none;stroke:#ffffff;stroke-width:2;stroke-linecap:butt;stroke-linejoin:miter;stroke-miterlimit:4;stroke-dasharray:none;stroke-opacity:1"
             d="m 873.398,54.4727 c -0.332,0.4492 -0.996,0.664 -1.933,0.664 v 1.2305 h 42.519 c 1.739,0 2.871,0.1172 3.34,0.4492 0.488,0.293 0.703,0.8008 0.703,1.543 h 1.231 V 46.7969 h -1.231 c 0,0.8593 -0.273,1.5625 -0.8,2.0703 -0.547,0.5078 -1.602,0.7617 -3.145,0.7617 h -31.68 V 33.6523 h 20.606 c 1.23,0 2.226,0.1758 3.008,0.586 0.761,0.4101 1.152,1.1523 1.152,2.2461 h 1.23 V 24.1797 h -1.23 c 0,0.9961 -0.293,1.6992 -0.898,2.1094 -0.606,0.4101 -1.641,0.625 -3.047,0.625 H 882.402 V 9.6875 h 33.907 c 1.425,0 2.461,0.23438 3.144,0.7422 0.684,0.5078 1.016,1.4062 1.016,2.6953 h 1.211 V 0.996094 h -1.211 c 0,1.308596 -1.172,1.953126 -3.555,1.953126 h -45.449 v 1.23047 c 0.937,0 1.601,0.21484 1.933,0.64453 0.332,0.42969 0.508,1.03516 0.508,1.77734 V 52.6953 c 0,0.7617 -0.176,1.3281 -0.508,1.7774 z" /><path
             id="path96"
             style="fill:#ffffff;fill-opacity:1;fill-rule:nonzero;stroke:none"
             d="m 958.281,18.9453 c -0.176,-0.4883 -0.293,-0.9375 -0.293,-1.3086 0,-0.9765 0.606,-1.9336 1.778,-2.9492 1.191,-1.0156 2.754,-1.9727 4.668,-2.793 1.933,-0.8593 4.101,-1.5625 6.543,-2.08981 2.441,-0.52735 4.902,-0.80078 7.402,-0.80078 6.445,0 11.074,0.95703 13.965,2.85159 2.871,1.8945 4.316,4.3359 4.316,7.3242 0,1.4258 -0.371,2.6172 -1.074,3.5742 -0.703,0.9375 -1.68,1.6797 -2.93,2.1875 -1.25,0.5274 -2.695,0.8789 -4.355,1.0547 -1.66,0.2344 -3.457,0.3125 -5.332,0.3125 -3.106,0 -6.407,0.0195 -9.903,0.0586 -3.476,0.039 -6.679,0.4687 -9.57,1.3086 -2.91,0.8398 -5.312,2.2461 -7.207,4.2187 -1.894,1.9727 -2.832,4.8633 -2.832,8.711 0,2.4414 0.664,4.6484 2.012,6.6601 1.347,1.9922 3.183,3.6914 5.527,5.1172 2.324,1.4258 5.098,2.5391 8.262,3.3594 3.203,0.8203 6.621,1.2109 10.371,1.2109 2.891,0 5.41,-0.2148 7.539,-0.6054 2.129,-0.4102 3.984,-0.8594 5.527,-1.3477 1.563,-0.4492 2.832,-0.8984 3.848,-1.3086 1.035,-0.4102 1.855,-0.6055 2.539,-0.6055 0.742,0 1.308,0.1368 1.638,0.4102 0.33,0.2539 0.67,0.5469 1,0.918 l 1.23,-0.5274 -5.587,-11.6797 -1.093,0.7032 c 0.058,0.2148 0.058,0.6445 0.058,1.3281 0,0.4687 -0.41,1.0547 -1.191,1.7187 -0.821,0.6836 -1.973,1.3477 -3.477,1.9922 -1.465,0.625 -3.242,1.1719 -5.293,1.6016 -2.07,0.4492 -4.297,0.6836 -6.738,0.6836 -5.469,0 -9.824,-0.8985 -13.027,-2.6563 -3.184,-1.7383 -4.805,-4.0429 -4.805,-6.8945 0,-1.2695 0.351,-2.2852 1.074,-3.0859 0.703,-0.7813 1.68,-1.3672 2.93,-1.7969 1.25,-0.4492 2.715,-0.7422 4.355,-0.8985 1.66,-0.1171 3.457,-0.1757 5.352,-0.1757 3.164,0 6.465,-0.0586 9.922,-0.1563 3.437,-0.0976 6.64,-0.625 9.531,-1.582 2.91,-0.9571 5.309,-2.461 7.209,-4.5703 1.89,-2.1094 2.85,-5.1953 2.85,-9.2383 0,-2.168 -0.57,-4.2383 -1.68,-6.25 -1.13,-1.9922 -2.81,-3.76954 -5.039,-5.33204 -2.266,-1.54297 -5.02,-2.77344 -8.301,-3.65235 -3.281,-0.8789 -7.07,-1.32812 -11.406,-1.32812 -3.672,0 -6.817,0.29297 -9.492,0.8789 -2.676,0.54688 -4.961,1.23047 -6.875,2.01172 -1.875,0.76172 -3.418,1.48438 -4.649,2.10938 -1.211,0.66406 -2.207,0.97656 -2.949,0.97656 -0.664,0 -1.387,-0.39063 -2.129,-1.21094 l -1.016,0.58594 5.489,11.67965 1.308,-0.7031" /><path
             id="path98"
             style="fill:none;stroke:#ffffff;stroke-width:2;stroke-linecap:butt;stroke-linejoin:miter;stroke-miterlimit:4;stroke-dasharray:none;stroke-opacity:1"
             d="m 958.281,18.9453 c -0.176,-0.4883 -0.293,-0.9375 -0.293,-1.3086 0,-0.9765 0.606,-1.9336 1.778,-2.9492 1.191,-1.0156 2.754,-1.9727 4.668,-2.793 1.933,-0.8593 4.101,-1.5625 6.543,-2.08981 2.441,-0.52735 4.902,-0.80078 7.402,-0.80078 6.445,0 11.074,0.95703 13.965,2.85159 2.871,1.8945 4.316,4.3359 4.316,7.3242 0,1.4258 -0.371,2.6172 -1.074,3.5742 -0.703,0.9375 -1.68,1.6797 -2.93,2.1875 -1.25,0.5274 -2.695,0.8789 -4.355,1.0547 -1.66,0.2344 -3.457,0.3125 -5.332,0.3125 -3.106,0 -6.407,0.0195 -9.903,0.0586 -3.476,0.039 -6.679,0.4687 -9.57,1.3086 -2.91,0.8398 -5.312,2.2461 -7.207,4.2187 -1.894,1.9727 -2.832,4.8633 -2.832,8.711 0,2.4414 0.664,4.6484 2.012,6.6601 1.347,1.9922 3.183,3.6914 5.527,5.1172 2.324,1.4258 5.098,2.5391 8.262,3.3594 3.203,0.8203 6.621,1.2109 10.371,1.2109 2.891,0 5.41,-0.2148 7.539,-0.6054 2.129,-0.4102 3.984,-0.8594 5.527,-1.3477 1.563,-0.4492 2.832,-0.8984 3.848,-1.3086 1.035,-0.4102 1.855,-0.6055 2.539,-0.6055 0.742,0 1.308,0.1368 1.638,0.4102 0.33,0.2539 0.67,0.5469 1,0.918 l 1.23,-0.5274 -5.587,-11.6797 -1.093,0.7032 c 0.058,0.2148 0.058,0.6445 0.058,1.3281 0,0.4687 -0.41,1.0547 -1.191,1.7187 -0.821,0.6836 -1.973,1.3477 -3.477,1.9922 -1.465,0.625 -3.242,1.1719 -5.293,1.6016 -2.07,0.4492 -4.297,0.6836 -6.738,0.6836 -5.469,0 -9.824,-0.8985 -13.027,-2.6563 -3.184,-1.7383 -4.805,-4.0429 -4.805,-6.8945 0,-1.2695 0.351,-2.2852 1.074,-3.0859 0.703,-0.7813 1.68,-1.3672 2.93,-1.7969 1.25,-0.4492 2.715,-0.7422 4.355,-0.8985 1.66,-0.1171 3.457,-0.1757 5.352,-0.1757 3.164,0 6.465,-0.0586 9.922,-0.1563 3.437,-0.0976 6.64,-0.625 9.531,-1.582 2.91,-0.9571 5.309,-2.461 7.209,-4.5703 1.89,-2.1094 2.85,-5.1953 2.85,-9.2383 0,-2.168 -0.57,-4.2383 -1.68,-6.25 -1.13,-1.9922 -2.81,-3.76954 -5.039,-5.33204 -2.266,-1.54297 -5.02,-2.77344 -8.301,-3.65235 -3.281,-0.8789 -7.07,-1.32812 -11.406,-1.32812 -3.672,0 -6.817,0.29297 -9.492,0.8789 -2.676,0.54688 -4.961,1.23047 -6.875,2.01172 -1.875,0.76172 -3.418,1.48438 -4.649,2.10938 -1.211,0.66406 -2.207,0.97656 -2.949,0.97656 -0.664,0 -1.387,-0.39063 -2.129,-1.21094 l -1.016,0.58594 5.489,11.67965 z" /><path
             id="path100"
             style="fill:#ffffff;fill-opacity:1;fill-rule:nonzero;stroke:none"
             d="m 1041.19,18.9453 c -0.19,-0.4883 -0.29,-0.9375 -0.29,-1.3086 0,-0.9765 0.58,-1.9336 1.78,-2.9492 1.17,-1.0156 2.73,-1.9727 4.66,-2.793 1.94,-0.8593 4.11,-1.5625 6.55,-2.08981 2.44,-0.52735 4.9,-0.80078 7.4,-0.80078 6.42,0 11.09,0.95703 13.96,2.85159 2.88,1.8945 4.32,4.3359 4.32,7.3242 0,1.4258 -0.37,2.6172 -1.07,3.5742 -0.73,0.9375 -1.68,1.6797 -2.93,2.1875 -1.25,0.5274 -2.72,0.8789 -4.36,1.0547 -1.68,0.2344 -3.46,0.3125 -5.33,0.3125 -3.11,0 -6.43,0.0195 -9.88,0.0586 -3.5,0.039 -6.7,0.4687 -9.59,1.3086 -2.91,0.8398 -5.32,2.2461 -7.21,4.2187 -1.9,1.9727 -2.83,4.8633 -2.83,8.711 0,2.4414 0.68,4.6484 2.03,6.6601 1.33,1.9922 3.18,3.6914 5.51,5.1172 2.34,1.4258 5.09,2.5391 8.26,3.3594 3.2,0.8203 6.64,1.2109 10.37,1.2109 2.89,0 5.41,-0.2148 7.54,-0.6054 2.13,-0.4102 3.98,-0.8594 5.53,-1.3477 1.56,-0.4492 2.83,-0.8984 3.84,-1.3086 1.02,-0.4102 1.86,-0.6055 2.54,-0.6055 0.74,0 1.29,0.1368 1.64,0.4102 0.33,0.2539 0.67,0.5469 1.02,0.918 l 1.21,-0.5274 -5.59,-11.6797 -1.09,0.7032 c 0.04,0.2148 0.06,0.6445 0.06,1.3281 0,0.4687 -0.41,1.0547 -1.21,1.7187 -0.8,0.6836 -1.96,1.3477 -3.46,1.9922 -1.46,0.625 -3.26,1.1719 -5.31,1.6016 -2.05,0.4492 -4.3,0.6836 -6.72,0.6836 -5.47,0 -9.81,-0.8985 -13.01,-2.6563 -3.22,-1.7383 -4.82,-4.0429 -4.82,-6.8945 0,-1.2695 0.35,-2.2852 1.07,-3.0859 0.7,-0.7813 1.68,-1.3672 2.95,-1.7969 1.23,-0.4492 2.7,-0.7422 4.34,-0.8985 1.66,-0.1171 3.43,-0.1757 5.33,-0.1757 3.16,0 6.48,-0.0586 9.94,-0.1563 3.46,-0.0976 6.64,-0.625 9.53,-1.582 2.93,-0.9571 5.31,-2.461 7.21,-4.5703 1.87,-2.1094 2.83,-5.1953 2.83,-9.2383 0,-2.168 -0.55,-4.2383 -1.68,-6.25 -1.11,-1.9922 -2.79,-3.76954 -5.04,-5.33204 -2.23,-1.54297 -4.98,-2.77344 -8.28,-3.65235 -3.28,-0.8789 -7.07,-1.32812 -11.41,-1.32812 -3.65,0 -6.81,0.29297 -9.49,0.8789 -2.67,0.54688 -4.96,1.23047 -6.83,2.01172 -1.9,0.76172 -3.48,1.48438 -4.69,2.10938 -1.23,0.66406 -2.19,0.97656 -2.93,0.97656 -0.68,0 -1.41,-0.39063 -2.15,-1.21094 l -1,0.58594 5.49,11.67965 1.29,-0.7031" /><path
             id="path102"
             style="fill:none;stroke:#ffffff;stroke-width:2;stroke-linecap:butt;stroke-linejoin:miter;stroke-miterlimit:4;stroke-dasharray:none;stroke-opacity:1"
             d="m 1041.19,18.9453 c -0.19,-0.4883 -0.29,-0.9375 -0.29,-1.3086 0,-0.9765 0.58,-1.9336 1.78,-2.9492 1.17,-1.0156 2.73,-1.9727 4.66,-2.793 1.94,-0.8593 4.11,-1.5625 6.55,-2.08981 2.44,-0.52735 4.9,-0.80078 7.4,-0.80078 6.42,0 11.09,0.95703 13.96,2.85159 2.88,1.8945 4.32,4.3359 4.32,7.3242 0,1.4258 -0.37,2.6172 -1.07,3.5742 -0.73,0.9375 -1.68,1.6797 -2.93,2.1875 -1.25,0.5274 -2.72,0.8789 -4.36,1.0547 -1.68,0.2344 -3.46,0.3125 -5.33,0.3125 -3.11,0 -6.43,0.0195 -9.88,0.0586 -3.5,0.039 -6.7,0.4687 -9.59,1.3086 -2.91,0.8398 -5.32,2.2461 -7.21,4.2187 -1.9,1.9727 -2.83,4.8633 -2.83,8.711 0,2.4414 0.68,4.6484 2.03,6.6601 1.33,1.9922 3.18,3.6914 5.51,5.1172 2.34,1.4258 5.09,2.5391 8.26,3.3594 3.2,0.8203 6.64,1.2109 10.37,1.2109 2.89,0 5.41,-0.2148 7.54,-0.6054 2.13,-0.4102 3.98,-0.8594 5.53,-1.3477 1.56,-0.4492 2.83,-0.8984 3.84,-1.3086 1.02,-0.4102 1.86,-0.6055 2.54,-0.6055 0.74,0 1.29,0.1368 1.64,0.4102 0.33,0.2539 0.67,0.5469 1.02,0.918 l 1.21,-0.5274 -5.59,-11.6797 -1.09,0.7032 c 0.04,0.2148 0.06,0.6445 0.06,1.3281 0,0.4687 -0.41,1.0547 -1.21,1.7187 -0.8,0.6836 -1.96,1.3477 -3.46,1.9922 -1.46,0.625 -3.26,1.1719 -5.31,1.6016 -2.05,0.4492 -4.3,0.6836 -6.72,0.6836 -5.47,0 -9.81,-0.8985 -13.01,-2.6563 -3.22,-1.7383 -4.82,-4.0429 -4.82,-6.8945 0,-1.2695 0.35,-2.2852 1.07,-3.0859 0.7,-0.7813 1.68,-1.3672 2.95,-1.7969 1.23,-0.4492 2.7,-0.7422 4.34,-0.8985 1.66,-0.1171 3.43,-0.1757 5.33,-0.1757 3.16,0 6.48,-0.0586 9.94,-0.1563 3.46,-0.0976 6.64,-0.625 9.53,-1.582 2.93,-0.9571 5.31,-2.461 7.21,-4.5703 1.87,-2.1094 2.83,-5.1953 2.83,-9.2383 0,-2.168 -0.55,-4.2383 -1.68,-6.25 -1.11,-1.9922 -2.79,-3.76954 -5.04,-5.33204 -2.23,-1.54297 -4.98,-2.77344 -8.28,-3.65235 -3.28,-0.8789 -7.07,-1.32812 -11.41,-1.32812 -3.65,0 -6.81,0.29297 -9.49,0.8789 -2.67,0.54688 -4.96,1.23047 -6.83,2.01172 -1.9,0.76172 -3.48,1.48438 -4.69,2.10938 -1.23,0.66406 -2.19,0.97656 -2.93,0.97656 -0.68,0 -1.41,-0.39063 -2.15,-1.21094 l -1,0.58594 5.49,11.67965 z" /><path
             id="path104"
             style="fill:#ffffff;fill-opacity:1;fill-rule:nonzero;stroke:none"
             d="m 1130.86,44.6289 c -3.75,-3.6133 -5.63,-8.6133 -5.63,-14.9805 0,-6.3672 1.88,-11.3476 5.63,-14.9804 3.77,-3.6133 9.08,-5.41019 16.02,-5.41019 6.89,0 12.22,1.79689 15.97,5.41019 3.75,3.6328 5.65,8.6132 5.65,14.9804 0,6.3672 -1.9,11.3672 -5.65,14.9805 -3.75,3.6328 -9.08,5.4297 -15.97,5.4297 -6.94,0 -12.25,-1.7969 -16.02,-5.4297 z m 28.2,10.5469 c 3.71,-1.1914 6.96,-2.9688 9.69,-5.2735 2.77,-2.3632 4.88,-5.1953 6.41,-8.5937 1.52,-3.3789 2.28,-7.2656 2.28,-11.6797 0,-4.3945 -0.76,-8.3008 -2.28,-11.6797 -1.53,-3.3789 -3.64,-6.2304 -6.41,-8.51561 -2.73,-2.30468 -5.98,-4.0039 -9.69,-5.13671 -3.75,-1.11329 -7.79,-1.67969 -12.18,-1.67969 -4.42,0 -8.5,0.5664 -12.19,1.67969 -3.73,1.13281 -6.98,2.83203 -9.73,5.13671 -2.73,2.28521 -4.88,5.13671 -6.39,8.51561 -1.52,3.3789 -2.28,7.2852 -2.28,11.6797 0,4.4141 0.76,8.3008 2.28,11.6797 1.51,3.3984 3.66,6.2305 6.39,8.5937 2.75,2.3047 6,4.0821 9.73,5.2735 3.69,1.1914 7.77,1.7773 12.19,1.7773 4.39,0 8.43,-0.5859 12.18,-1.7773" /><path
             id="path106"
             style="fill:none;stroke:#ffffff;stroke-width:2;stroke-linecap:butt;stroke-linejoin:miter;stroke-miterlimit:4;stroke-dasharray:none;stroke-opacity:1"
             d="m 1130.86,44.6289 c -3.75,-3.6133 -5.63,-8.6133 -5.63,-14.9805 0,-6.3672 1.88,-11.3476 5.63,-14.9804 3.77,-3.6133 9.08,-5.41019 16.02,-5.41019 6.89,0 12.22,1.79689 15.97,5.41019 3.75,3.6328 5.65,8.6132 5.65,14.9804 0,6.3672 -1.9,11.3672 -5.65,14.9805 -3.75,3.6328 -9.08,5.4297 -15.97,5.4297 -6.94,0 -12.25,-1.7969 -16.02,-5.4297 z m 28.2,10.5469 c 3.71,-1.1914 6.96,-2.9688 9.69,-5.2735 2.77,-2.3632 4.88,-5.1953 6.41,-8.5937 1.52,-3.3789 2.28,-7.2656 2.28,-11.6797 0,-4.3945 -0.76,-8.3008 -2.28,-11.6797 -1.53,-3.3789 -3.64,-6.2304 -6.41,-8.51561 -2.73,-2.30468 -5.98,-4.0039 -9.69,-5.13671 -3.75,-1.11329 -7.79,-1.67969 -12.18,-1.67969 -4.42,0 -8.5,0.5664 -12.19,1.67969 -3.73,1.13281 -6.98,2.83203 -9.73,5.13671 -2.73,2.28521 -4.88,5.13671 -6.39,8.51561 -1.52,3.3789 -2.28,7.2852 -2.28,11.6797 0,4.4141 0.76,8.3008 2.28,11.6797 1.51,3.3984 3.66,6.2305 6.39,8.5937 2.75,2.3047 6,4.0821 9.73,5.2735 3.69,1.1914 7.77,1.7773 12.19,1.7773 4.39,0 8.43,-0.5859 12.18,-1.7773 z" /><path
             id="path108"
             style="fill:#ffffff;fill-opacity:1;fill-rule:nonzero;stroke:none"
             d="m 1290.96,10.2734 c 3.28,0 5.7,0.7227 7.38,2.2266 1.66,1.5039 2.48,3.6523 2.48,6.5039 0,2.832 -0.82,5 -2.48,6.4844 -1.68,1.4844 -4.1,2.2461 -7.38,2.2461 h -25.49 v -17.461 z m -2.25,24.7852 c 3.87,0 6.54,0.5664 8.03,1.6992 1.5,1.1719 2.24,2.9102 2.24,5.293 0,2.3633 -0.74,4.1015 -2.24,5.2539 -1.49,1.1523 -4.16,1.7383 -8.03,1.7383 h -23.24 V 35.0586 Z m -32.25,19.4141 c -0.33,0.4492 -0.99,0.664 -1.93,0.664 v 1.2305 h 34.92 c 3.26,0 6.02,-0.3711 8.28,-1.0742 2.27,-0.7227 4.11,-1.6992 5.53,-2.9297 1.43,-1.2695 2.46,-2.7344 3.11,-4.375 0.62,-1.6602 0.97,-3.4766 0.97,-5.4492 0,-2.6368 -0.56,-4.9024 -1.7,-6.836 -1.13,-1.9336 -3.08,-3.2617 -5.93,-4.0039 v -0.1953 c 2.91,-0.6836 5.13,-2.1875 6.68,-4.5312 1.58,-2.3438 2.34,-5.1758 2.34,-8.4961 0,-4.9219 -1.54,-8.75004 -4.67,-11.48441 -3.1,-2.67578 -8.22,-4.04297 -15.33,-4.04297 h -34.2 v 1.23047 c 0.94,0 1.6,0.21484 1.93,0.64453 0.32,0.42969 0.51,1.03516 0.51,1.77734 V 52.6953 c 0,0.7617 -0.19,1.3281 -0.51,1.7774" /><path
             id="path110"
             style="fill:none;stroke:#ffffff;stroke-width:2;stroke-linecap:butt;stroke-linejoin:miter;stroke-miterlimit:4;stroke-dasharray:none;stroke-opacity:1"
             d="m 1290.96,10.2734 c 3.28,0 5.7,0.7227 7.38,2.2266 1.66,1.5039 2.48,3.6523 2.48,6.5039 0,2.832 -0.82,5 -2.48,6.4844 -1.68,1.4844 -4.1,2.2461 -7.38,2.2461 h -25.49 v -17.461 z m -2.25,24.7852 c 3.87,0 6.54,0.5664 8.03,1.6992 1.5,1.1719 2.24,2.9102 2.24,5.293 0,2.3633 -0.74,4.1015 -2.24,5.2539 -1.49,1.1523 -4.16,1.7383 -8.03,1.7383 h -23.24 V 35.0586 Z m -32.25,19.4141 c -0.33,0.4492 -0.99,0.664 -1.93,0.664 v 1.2305 h 34.92 c 3.26,0 6.02,-0.3711 8.28,-1.0742 2.27,-0.7227 4.11,-1.6992 5.53,-2.9297 1.43,-1.2695 2.46,-2.7344 3.11,-4.375 0.62,-1.6602 0.97,-3.4766 0.97,-5.4492 0,-2.6368 -0.56,-4.9024 -1.7,-6.836 -1.13,-1.9336 -3.08,-3.2617 -5.93,-4.0039 v -0.1953 c 2.91,-0.6836 5.13,-2.1875 6.68,-4.5312 1.58,-2.3438 2.34,-5.1758 2.34,-8.4961 0,-4.9219 -1.54,-8.75004 -4.67,-11.48441 -3.1,-2.67578 -8.22,-4.04297 -15.33,-4.04297 h -34.2 v 1.23047 c 0.94,0 1.6,0.21484 1.93,0.64453 0.32,0.42969 0.51,1.03516 0.51,1.77734 V 52.6953 c 0,0.7617 -0.19,1.3281 -0.51,1.7774 z" /><path
             id="path112"
             style="fill:#ffffff;fill-opacity:1;fill-rule:nonzero;stroke:none"
             d="m 1377.42,23.8867 -11.46,23.9258 -10.57,-23.9258 z M 1348.69,9.04297 c -0.27,-0.625 -0.56,-1.28906 -0.9,-2.05078 -0.35,-0.72266 -0.5,-1.28907 -0.5,-1.69922 0,-0.76172 0.56,-1.11328 1.71,-1.11328 V 2.94922 h -12.46 v 1.23047 c 0.39,0 0.75,0.03906 1.04,0.09765 0.31,0.0586 0.6,0.25391 0.88,0.60547 0.27,0.33203 0.54,0.82031 0.9,1.48438 0.33,0.625 0.8,1.5039 1.32,2.59765 l 18.38,40.99606 c 0.53,1.1329 0.94,2.0118 1.21,2.5782 0.26,0.5859 0.41,1.0351 0.41,1.3867 0,0.8008 -0.62,1.2109 -1.83,1.2109 v 1.2305 h 14.8 v -1.2305 c -1.09,0 -1.62,-0.4101 -1.62,-1.2109 0,-0.4102 0.18,-0.9375 0.51,-1.5625 0.35,-0.6641 0.78,-1.5625 1.33,-2.7149 l 19.47,-40.39059 c 0.62,-1.23047 1.09,-2.16797 1.43,-2.85156 0.37,-0.68359 0.66,-1.19141 0.97,-1.52344 0.3,-0.35156 0.63,-0.54687 0.96,-0.60547 0.33,-0.05859 0.82,-0.09765 1.43,-0.09765 V 2.94922 H 1384 v 1.23047 c 0.82,0 1.39,0.09765 1.64,0.35156 0.28,0.23437 0.41,0.58594 0.41,1.03516 0,0.35156 -0.09,0.70312 -0.25,1.07421 -0.17,0.3711 -0.55,1.19141 -1.07,2.40235 l -3.85,8.12503 h -28.73 l -3.46,-8.12503" /><path
             id="path114"
             style="fill:none;stroke:#ffffff;stroke-width:2;stroke-linecap:butt;stroke-linejoin:miter;stroke-miterlimit:4;stroke-dasharray:none;stroke-opacity:1"
             d="m 1377.42,23.8867 -11.46,23.9258 -10.57,-23.9258 z M 1348.69,9.04297 c -0.27,-0.625 -0.56,-1.28906 -0.9,-2.05078 -0.35,-0.72266 -0.5,-1.28907 -0.5,-1.69922 0,-0.76172 0.56,-1.11328 1.71,-1.11328 V 2.94922 h -12.46 v 1.23047 c 0.39,0 0.75,0.03906 1.04,0.09765 0.31,0.0586 0.6,0.25391 0.88,0.60547 0.27,0.33203 0.54,0.82031 0.9,1.48438 0.33,0.625 0.8,1.5039 1.32,2.59765 l 18.38,40.99606 c 0.53,1.1329 0.94,2.0118 1.21,2.5782 0.26,0.5859 0.41,1.0351 0.41,1.3867 0,0.8008 -0.62,1.2109 -1.83,1.2109 v 1.2305 h 14.8 v -1.2305 c -1.09,0 -1.62,-0.4101 -1.62,-1.2109 0,-0.4102 0.18,-0.9375 0.51,-1.5625 0.35,-0.6641 0.78,-1.5625 1.33,-2.7149 l 19.47,-40.39059 c 0.62,-1.23047 1.09,-2.16797 1.43,-2.85156 0.37,-0.68359 0.66,-1.19141 0.97,-1.52344 0.3,-0.35156 0.63,-0.54687 0.96,-0.60547 0.33,-0.05859 0.82,-0.09765 1.43,-0.09765 V 2.94922 H 1384 v 1.23047 c 0.82,0 1.39,0.09765 1.64,0.35156 0.28,0.23437 0.41,0.58594 0.41,1.03516 0,0.35156 -0.09,0.70312 -0.25,1.07421 -0.17,0.3711 -0.55,1.19141 -1.07,2.40235 l -3.85,8.12503 h -28.73 z" /><path
             id="path116"
             style="fill:#ffffff;fill-opacity:1;fill-rule:nonzero;stroke:none"
             d="m 1460.16,32.9883 c 4.12,0 7.03,0.7812 8.71,2.3242 1.7,1.582 2.56,3.7109 2.56,6.4258 0,1.3476 -0.18,2.5 -0.51,3.457 -0.37,0.9375 -0.96,1.7383 -1.84,2.3828 -0.9,0.6446 -2.09,1.1328 -3.59,1.4258 -1.54,0.293 -3.48,0.4688 -5.84,0.4688 h -21.74 V 32.9883 Z M 1438.4,4.82422 c 0.35,-0.42969 0.99,-0.64453 1.95,-0.64453 V 2.94922 h -13.38 v 1.23047 c 0.94,0 1.58,0.21484 1.92,0.64453 0.33,0.42969 0.5,1.03516 0.5,1.77734 V 52.6953 c 0,0.7617 -0.17,1.3281 -0.5,1.7774 -0.34,0.4492 -0.98,0.664 -1.92,0.664 v 1.2305 h 34.01 c 6.7,0 11.5,-1.2891 14.41,-3.8281 2.93,-2.5391 4.38,-6.211 4.38,-11.0157 0,-4.2773 -1.12,-7.6562 -3.36,-10.1562 -2.25,-2.5195 -5.88,-4.1016 -10.96,-4.7852 l 12.77,-19.76559 c 0.76,-1.09375 1.35,-1.79688 1.78,-2.12891 0.45,-0.35156 1.17,-0.50781 2.19,-0.50781 V 2.94922 h -14.61 v 1.23047 c 0.88,0 1.44,0.05859 1.66,0.17578 0.25,0.13672 0.37,0.39062 0.37,0.72265 0,0.41016 -0.18,0.78126 -0.51,1.11329 l -12.5,19.92189 h -18.69 V 6.60156 c 0,-0.74218 0.16,-1.34765 0.49,-1.77734" /><path
             id="path118"
             style="fill:none;stroke:#ffffff;stroke-width:2;stroke-linecap:butt;stroke-linejoin:miter;stroke-miterlimit:4;stroke-dasharray:none;stroke-opacity:1"
             d="m 1460.16,32.9883 c 4.12,0 7.03,0.7812 8.71,2.3242 1.7,1.582 2.56,3.7109 2.56,6.4258 0,1.3476 -0.18,2.5 -0.51,3.457 -0.37,0.9375 -0.96,1.7383 -1.84,2.3828 -0.9,0.6446 -2.09,1.1328 -3.59,1.4258 -1.54,0.293 -3.48,0.4688 -5.84,0.4688 h -21.74 V 32.9883 Z M 1438.4,4.82422 c 0.35,-0.42969 0.99,-0.64453 1.95,-0.64453 V 2.94922 h -13.38 v 1.23047 c 0.94,0 1.58,0.21484 1.92,0.64453 0.33,0.42969 0.5,1.03516 0.5,1.77734 V 52.6953 c 0,0.7617 -0.17,1.3281 -0.5,1.7774 -0.34,0.4492 -0.98,0.664 -1.92,0.664 v 1.2305 h 34.01 c 6.7,0 11.5,-1.2891 14.41,-3.8281 2.93,-2.5391 4.38,-6.211 4.38,-11.0157 0,-4.2773 -1.12,-7.6562 -3.36,-10.1562 -2.25,-2.5195 -5.88,-4.1016 -10.96,-4.7852 l 12.77,-19.76559 c 0.76,-1.09375 1.35,-1.79688 1.78,-2.12891 0.45,-0.35156 1.17,-0.50781 2.19,-0.50781 V 2.94922 h -14.61 v 1.23047 c 0.88,0 1.44,0.05859 1.66,0.17578 0.25,0.13672 0.37,0.39062 0.37,0.72265 0,0.41016 -0.18,0.78126 -0.51,1.11329 l -12.5,19.92189 h -18.69 V 6.60156 c 0,-0.74218 0.16,-1.34765 0.49,-1.77734 z" /><path
             id="path120"
             style="fill:#ffffff;fill-opacity:1;fill-rule:evenodd;stroke:none"
             d="m 1000.62,144.395 c 95.84,0 173.56,52.531 173.56,117.324 0,64.797 -77.72,117.343 -173.56,117.343 -95.85,0 -173.565,-52.546 -173.565,-117.343 0,-64.793 77.715,-117.324 173.565,-117.324 v 0" /><path
             id="path122"
             style="fill:#940a28;fill-opacity:1;fill-rule:nonzero;stroke:none"
             d="m 1000.55,264.277 v 193.164 l 43.36,-133.523 -43.36,-59.641" /><path
             id="path124"
             style="fill:none;stroke:#ffffff;stroke-width:2;stroke-linecap:round;stroke-linejoin:round;stroke-miterlimit:4;stroke-dasharray:none;stroke-opacity:1"
             d="m 1000.55,264.277 v 193.164 l 43.36,-133.523 z" /><path
             id="path126"
             style="fill:#940a28;fill-opacity:1;fill-rule:nonzero;stroke:none"
             d="m 1000.68,264.355 -183.731,59.688 140.395,-0.047 43.336,-59.641" /><path
             id="path128"
             style="fill:none;stroke:#ffffff;stroke-width:2;stroke-linecap:round;stroke-linejoin:round;stroke-miterlimit:4;stroke-dasharray:none;stroke-opacity:1"
             d="m 1000.68,264.355 -183.731,59.688 140.395,-0.047 z" /><path
             id="path130"
             style="fill:#940a28;fill-opacity:1;fill-rule:nonzero;stroke:none"
             d="M 1000.62,264.277 887.078,108 l 43.418,133.477 70.124,22.8" /><path
             id="path132"
             style="fill:none;stroke:#ffffff;stroke-width:2;stroke-linecap:round;stroke-linejoin:round;stroke-miterlimit:4;stroke-dasharray:none;stroke-opacity:1"
             d="M 1000.62,264.277 887.078,108 930.496,241.477 Z" /><path
             id="path134"
             style="fill:#940a28;fill-opacity:1;fill-rule:nonzero;stroke:none"
             d="M 1000.51,264.277 1114.04,108 1000.51,190.559 v 73.718" /><path
             id="path136"
             style="fill:none;stroke:#ffffff;stroke-width:2;stroke-linecap:round;stroke-linejoin:round;stroke-miterlimit:4;stroke-dasharray:none;stroke-opacity:1"
             d="M 1000.51,264.277 1114.04,108 1000.51,190.559 Z" /><path
             id="path138"
             style="fill:#940a28;fill-opacity:1;fill-rule:nonzero;stroke:none"
             d="m 1000.59,264.355 183.7,59.688 -113.6,-82.461 -70.1,22.773" /><path
             id="path140"
             style="fill:none;stroke:#ffffff;stroke-width:2;stroke-linecap:round;stroke-linejoin:round;stroke-miterlimit:4;stroke-dasharray:none;stroke-opacity:1"
             d="m 1000.59,264.355 183.7,59.688 -113.6,-82.461 z" /><path
             id="path142"
             style="fill:#d2103e;fill-opacity:1;fill-rule:nonzero;stroke:none"
             d="M 1000.69,264.277 V 457.441 L 957.371,323.918 1000.69,264.277" /><path
             id="path144"
             style="fill:none;stroke:#ffffff;stroke-width:2;stroke-linecap:round;stroke-linejoin:round;stroke-miterlimit:4;stroke-dasharray:none;stroke-opacity:1"
             d="M 1000.69,264.277 V 457.441 L 957.371,323.918 Z" /><path
             id="path146"
             style="fill:#d2103e;fill-opacity:1;fill-rule:nonzero;stroke:none"
             d="m 1000.59,264.355 183.7,59.688 -140.37,-0.047 -43.33,-59.641" /><path
             id="path148"
             style="fill:none;stroke:#ffffff;stroke-width:2;stroke-linecap:round;stroke-linejoin:round;stroke-miterlimit:4;stroke-dasharray:none;stroke-opacity:1"
             d="m 1000.59,264.355 183.7,59.688 -140.37,-0.047 z" /><path
             id="path150"
             style="fill:#d2103e;fill-opacity:1;fill-rule:nonzero;stroke:none"
             d="M 1000.63,264.277 1114.19,108 l -43.44,133.477 -70.12,22.8" /><path
             id="path152"
             style="fill:none;stroke:#ffffff;stroke-width:2;stroke-linecap:round;stroke-linejoin:round;stroke-miterlimit:4;stroke-dasharray:none;stroke-opacity:1"
             d="M 1000.63,264.277 1114.19,108 1070.75,241.477 Z" /><path
             id="path154"
             style="fill:#d2103e;fill-opacity:1;fill-rule:nonzero;stroke:none"
             d="M 1000.76,264.277 887.223,108 1000.76,190.559 v 73.718" /><path
             id="path156"
             style="fill:none;stroke:#ffffff;stroke-width:2;stroke-linecap:round;stroke-linejoin:round;stroke-miterlimit:4;stroke-dasharray:none;stroke-opacity:1"
             d="M 1000.76,264.277 887.223,108 1000.76,190.559 Z" /><path
             id="path158"
             style="fill:#d2103e;fill-opacity:1;fill-rule:nonzero;stroke:none"
             d="m 1000.68,264.355 -183.731,59.688 113.598,-82.461 70.133,22.773" /><path
             id="path160"
             style="fill:none;stroke:#ffffff;stroke-width:2;stroke-linecap:round;stroke-linejoin:round;stroke-miterlimit:4;stroke-dasharray:none;stroke-opacity:1"
             d="M 1000.68,264.355 816.949,324.043 930.547,241.582 Z" /></g></g></g></g></svg>